<?xml version="1.0" encoding="UTF-8"?>
<!DOCTYPE svg PUBLIC "-//W3C//DTD SVG 1.1//EN" "http://www.w3.org/Graphics/SVG/1.1/DTD/svg11.dtd">
<svg xmlns="http://www.w3.org/2000/svg" version="1.1" width="3840px" height="2160px" style="shape-rendering:geometricPrecision; text-rendering:geometricPrecision; image-rendering:optimizeQuality; fill-rule:evenodd; clip-rule:evenodd" xmlns:xlink="http://www.w3.org/1999/xlink">
<g><path style="opacity:1" fill="#3f4144" d="M 444.5,497.5 C 514.5,497.5 584.5,497.5 654.5,497.5C 654.5,569.5 654.5,641.5 654.5,713.5C 599.499,713.333 544.499,713.5 489.5,714C 450.758,718.259 425.258,738.759 413,775.5C 412.226,779.147 411.559,782.814 411,786.5C 410.5,806.497 410.333,826.497 410.5,846.5C 576.167,846.5 741.833,846.5 907.5,846.5C 907.5,1111.17 907.5,1375.83 907.5,1640.5C 823.167,1640.5 738.833,1640.5 654.5,1640.5C 654.5,1447.83 654.5,1255.17 654.5,1062.5C 573.167,1062.5 491.833,1062.5 410.5,1062.5C 410.667,1254.83 410.5,1447.17 410,1639.5C 325.904,1640.5 241.737,1640.83 157.5,1640.5C 157.5,1447.83 157.5,1255.17 157.5,1062.5C 108.833,1062.5 60.1667,1062.5 11.5,1062.5C 11.5,990.5 11.5,918.5 11.5,846.5C 60.1667,846.5 108.833,846.5 157.5,846.5C 157.333,816.831 157.5,787.165 158,757.5C 167.563,652.11 219.396,575.943 313.5,529C 355.347,510.454 399.014,499.954 444.5,497.5 Z"/></g>
<g><path style="opacity:1" fill="#3f4144" d="M 2023.5,833.5 C 2084.6,831.537 2143.93,840.704 2201.5,861C 2299.19,900.355 2367.02,969.189 2405,1067.5C 2432.66,1143.75 2440.99,1222.09 2430,1302.5C 2252.9,1303.5 2075.74,1303.83 1898.5,1303.5C 1909.19,1386.69 1956.19,1432.52 2039.5,1441C 2078.57,1444.86 2114.9,1436.86 2148.5,1417C 2167.14,1403.9 2180.64,1386.73 2189,1365.5C 2189.72,1364.94 2190.56,1364.61 2191.5,1364.5C 2264.83,1385.33 2338.17,1406.17 2411.5,1427C 2413.65,1427.26 2415.32,1428.26 2416.5,1430C 2383.96,1505.87 2331.29,1563.2 2258.5,1602C 2186.94,1637.18 2111.27,1652.51 2031.5,1648C 1938.25,1644.38 1856.25,1612.71 1785.5,1553C 1717.3,1489.99 1674.47,1412.49 1657,1320.5C 1637.38,1206.93 1656.72,1100.59 1715,1001.5C 1774.64,910.047 1858.81,855.88 1967.5,839C 1986.25,836.463 2004.92,834.63 2023.5,833.5 Z M 2027.5,1023.5 C 2068.36,1020.04 2105.03,1030.54 2137.5,1055C 2166.42,1081.02 2182.42,1113.52 2185.5,1152.5C 2089.83,1152.5 1994.17,1152.5 1898.5,1152.5C 1903.17,1116.92 1917.01,1085.59 1940,1058.5C 1956.59,1042.96 1976.09,1032.79 1998.5,1028C 2008.25,1026.08 2017.91,1024.58 2027.5,1023.5 Z"/></g>
<g><path style="opacity:1" fill="#3f4144" d="M 920.5,846.5 C 1006.4,846.168 1092.24,846.502 1178,847.5C 1223.47,1002.24 1269.13,1156.9 1315,1311.5C 1360.67,1158.17 1406.33,1004.83 1452,851.5C 1494.76,850.835 1537.6,850.501 1580.5,850.5C 1623.64,850.335 1666.64,850.835 1709.5,852C 1615.22,1114.85 1520.55,1377.52 1425.5,1640C 1351.5,1640.83 1277.5,1640.67 1203.5,1639.5C 1108.96,1375.22 1014.63,1110.89 920.5,846.5 Z"/></g>
<g><path style="opacity:1" fill="#3f4144" d="M 2489.5,846.5 C 2575.5,846.5 2661.5,846.5 2747.5,846.5C 2747.33,886.168 2747.5,925.835 2748,965.5C 2760.57,936.84 2777.74,911.34 2799.5,889C 2832.76,860.795 2871.43,846.795 2915.5,847C 3025.17,846.5 3134.83,846.333 3244.5,846.5C 3244.33,886.501 3244.5,926.501 3245,966.5C 3259.43,931.448 3281.26,901.948 3310.5,878C 3336.72,860.258 3365.72,850.258 3397.5,848C 3436.48,846.598 3475.48,846.098 3514.5,846.5C 3513.25,918.502 3511.91,990.502 3510.5,1062.5C 3461.17,1062.33 3411.83,1062.5 3362.5,1063C 3316.26,1067.92 3283.43,1091.42 3264,1133.5C 3252.31,1161.3 3245.97,1190.3 3245,1220.5C 3244.5,1360.5 3244.33,1500.5 3244.5,1640.5C 3158.83,1640.5 3073.17,1640.5 2987.5,1640.5C 2987.5,1447.83 2987.5,1255.17 2987.5,1062.5C 2946.5,1062.33 2905.5,1062.5 2864.5,1063C 2816,1068.84 2782.5,1094.34 2764,1139.5C 2754.84,1163.32 2749.5,1187.99 2748,1213.5C 2747.67,1355.5 2747.33,1497.5 2747,1639.5C 2661.57,1640.66 2576.07,1640.83 2490.5,1640C 2489.5,1375.57 2489.17,1111.07 2489.5,846.5 Z"/></g>
<g><path style="opacity:1" fill="#1dbf72" d="M 3656.5,1342.5 C 3721.51,1341.25 3771.34,1367.91 3806,1422.5C 3839.83,1487.85 3833.83,1549.18 3788,1606.5C 3741.07,1656.58 3684.57,1672.08 3618.5,1653C 3556.25,1628.35 3520.42,1582.85 3511,1516.5C 3508.46,1445.72 3537.96,1393.22 3599.5,1359C 3617.7,1350.32 3636.7,1344.82 3656.5,1342.5 Z"/></g>
</svg>
