<?xml version="1.0" encoding="UTF-8"?>
<!DOCTYPE svg PUBLIC "-//W3C//DTD SVG 1.1//EN" "http://www.w3.org/Graphics/SVG/1.1/DTD/svg11.dtd">
<svg xmlns="http://www.w3.org/2000/svg" version="1.1" width="225px" height="225px" style="shape-rendering:geometricPrecision; text-rendering:geometricPrecision; image-rendering:optimizeQuality; fill-rule:evenodd; clip-rule:evenodd" xmlns:xlink="http://www.w3.org/1999/xlink">
<g><path style="opacity:1" fill="#fefefe" d="M -0.5,-0.5 C 74.5,-0.5 149.5,-0.5 224.5,-0.5C 224.5,74.5 224.5,149.5 224.5,224.5C 149.5,224.5 74.5,224.5 -0.5,224.5C -0.5,149.5 -0.5,74.5 -0.5,-0.5 Z"/></g>
<g><path style="opacity:1" fill="#601455" d="M 55.5,115.5 C 53.2646,115.205 51.2646,115.539 49.5,116.5C 47.9991,115.248 46.3325,114.248 44.5,113.5C 43.0536,112.387 41.3869,112.22 39.5,113C 37.0043,114.666 34.671,116.5 32.5,118.5C 30.8008,118.66 29.1341,118.494 27.5,118C 28.2524,117.329 28.5858,116.496 28.5,115.5C 33.0359,106.73 39.7026,104.564 48.5,109C 51.3312,110.666 53.6645,112.832 55.5,115.5 Z"/></g>
<g><path style="opacity:1" fill="#601857" d="M 87.5,117.5 C 85.2646,117.205 83.2646,117.539 81.5,118.5C 79.329,116.5 76.9957,114.666 74.5,113C 72.2884,112.211 70.2884,112.378 68.5,113.5C 67.5,114.167 66.5,114.833 65.5,115.5C 63.3926,114.532 61.0593,114.198 58.5,114.5C 64.3754,105.828 71.7087,104.328 80.5,110C 83.0386,112.37 85.3719,114.87 87.5,117.5 Z"/></g>
<g><path style="opacity:1" fill="#f8f7f8" d="M 68.5,113.5 C 77.6941,114.883 81.8608,120.216 81,129.5C 78.8646,131.278 76.3646,131.945 73.5,131.5C 70.2139,129.549 67.2139,127.215 64.5,124.5C 60.3176,121.036 60.651,118.036 65.5,115.5C 66.5,114.833 67.5,114.167 68.5,113.5 Z"/></g>
<g><path style="opacity:1" fill="#949494" d="M 99.5,114.5 C 98.5269,116.948 98.1936,119.615 98.5,122.5C 97.1968,119.645 97.1968,116.645 98.5,113.5C 99.1067,113.624 99.44,113.957 99.5,114.5 Z"/></g>
<g><path style="opacity:1" fill="#292929" d="M 99.5,114.5 C 101.46,118.473 103.46,118.473 105.5,114.5C 106.652,117.106 106.818,119.773 106,122.5C 106.126,117.316 104.959,116.65 102.5,120.5C 101.522,120.023 100.689,119.357 100,118.5C 99.79,120.058 99.29,121.391 98.5,122.5C 98.1936,119.615 98.5269,116.948 99.5,114.5 Z"/></g>
<g><path style="opacity:1" fill="#9a9a9a" d="M 130.5,114.5 C 129.527,116.948 129.194,119.615 129.5,122.5C 128.197,119.645 128.197,116.645 129.5,113.5C 130.107,113.624 130.44,113.957 130.5,114.5 Z"/></g>
<g><path style="opacity:1" fill="#3d3d3d" d="M 161.5,114.5 C 162.5,114.5 163.5,114.5 164.5,114.5C 164.756,116.937 165.423,119.271 166.5,121.5C 166.167,121.833 165.833,122.167 165.5,122.5C 163.684,119.936 161.851,119.936 160,122.5C 160.153,119.826 160.653,117.16 161.5,114.5 Z"/></g>
<g><path style="opacity:1" fill="#6a6a6a" d="M 177.5,113.5 C 178.765,114.514 179.431,116.014 179.5,118C 179.167,119.5 178.833,121 178.5,122.5C 177.516,119.572 177.183,116.572 177.5,113.5 Z"/></g>
<g><path style="opacity:1" fill="#282828" d="M 168.5,115.5 C 170.288,114.378 172.288,114.211 174.5,115C 173.004,117.201 172.004,119.701 171.5,122.5C 171.062,119.705 170.062,117.372 168.5,115.5 Z"/></g>
<g><path style="opacity:1" fill="#252525" d="M 193.5,114.5 C 198.041,114.331 198.374,114.998 194.5,116.5C 198.021,117.15 199.021,118.983 197.5,122C 192.999,122.663 192.665,122.163 196.5,120.5C 195.653,119.155 194.487,118.155 193,117.5C 192.53,116.423 192.697,115.423 193.5,114.5 Z"/></g>
<g><path style="opacity:1" fill="#323232" d="M 147.5,114.5 C 149.624,115.031 151.124,116.365 152,118.5C 152.941,116.939 154.108,115.605 155.5,114.5C 156.833,117.167 156.833,119.833 155.5,122.5C 154.86,117.938 153.694,117.604 152,121.5C 150.306,117.604 149.14,117.938 148.5,122.5C 147.52,119.914 147.187,117.247 147.5,114.5 Z"/></g>
<g><path style="opacity:1" fill="#e9c2ed" d="M 68.5,113.5 C 70.2884,112.378 72.2884,112.211 74.5,113C 76.9957,114.666 79.329,116.5 81.5,118.5C 85.4226,123.238 85.4226,127.905 81.5,132.5C 78.8707,133.714 76.204,133.714 73.5,132.5C 73.5,132.167 73.5,131.833 73.5,131.5C 76.3646,131.945 78.8646,131.278 81,129.5C 81.8608,120.216 77.6941,114.883 68.5,113.5 Z"/></g>
<g><path style="opacity:1" fill="#7f345c" d="M 28.5,115.5 C 28.5858,116.496 28.2524,117.329 27.5,118C 29.1341,118.494 30.8008,118.66 32.5,118.5C 32.573,120.027 31.9063,121.027 30.5,121.5C 25.0936,120.735 23.0936,123.069 24.5,128.5C 23.3709,126.372 23.2042,124.039 24,121.5C 25.2775,119.253 26.7775,117.253 28.5,115.5 Z"/></g>
<g><path style="opacity:1" fill="#831f5a" d="M 58.5,114.5 C 61.0593,114.198 63.3926,114.532 65.5,115.5C 60.651,118.036 60.3176,121.036 64.5,124.5C 62.6943,125.024 61.0276,125.691 59.5,126.5C 55.8333,123.5 52.5,120.167 49.5,116.5C 51.2646,115.539 53.2646,115.205 55.5,115.5C 56.609,115.443 57.609,115.11 58.5,114.5 Z"/></g>
<g><path style="opacity:1" fill="#2b2b2b" d="M 112.5,114.5 C 113.75,114.577 114.583,115.244 115,116.5C 115.991,118.447 116.325,120.447 116,122.5C 114.271,119.921 112.438,119.921 110.5,122.5C 110.167,122.167 109.833,121.833 109.5,121.5C 110.702,119.22 111.702,116.886 112.5,114.5 Z"/></g>
<g><path style="opacity:1" fill="#2b2b2b" d="M 124.5,115.5 C 125.108,117.602 125.442,119.769 125.5,122C 124.004,122.507 122.837,122.007 122,120.5C 121.692,121.308 121.192,121.975 120.5,122.5C 119.52,119.914 119.187,117.247 119.5,114.5C 121.415,114.216 123.081,114.549 124.5,115.5 Z"/></g>
<g><path style="opacity:1" fill="#e3e3e3" d="M 124.5,115.5 C 124.778,117.346 124.111,118.68 122.5,119.5C 121.571,118.311 121.238,116.978 121.5,115.5C 122.5,115.5 123.5,115.5 124.5,115.5 Z"/></g>
<g><path style="opacity:1" fill="#323232" d="M 130.5,114.5 C 130.343,115.873 130.51,117.207 131,118.5C 132.353,117.315 133.52,115.981 134.5,114.5C 134.833,114.833 135.167,115.167 135.5,115.5C 134.833,116.5 134.167,117.5 133.5,118.5C 136.259,122.056 135.926,122.723 132.5,120.5C 131.482,121.193 130.482,121.859 129.5,122.5C 129.194,119.615 129.527,116.948 130.5,114.5 Z"/></g>
<g><path style="opacity:1" fill="#2b2b2b" d="M 183.5,114.5 C 185.604,114.201 187.604,114.534 189.5,115.5C 188.418,115.749 187.085,115.915 185.5,116C 184.167,117.667 184.167,119.333 185.5,121C 187.085,121.085 188.418,121.251 189.5,121.5C 183.297,122.958 181.297,120.625 183.5,114.5 Z"/></g>
<g><path style="opacity:1" fill="#262626" d="M 139.5,114.5 C 145.324,114.347 145.657,115.013 140.5,116.5C 145.833,117.833 145.833,119.167 140.5,120.5C 145.657,121.987 145.324,122.653 139.5,122.5C 139.5,119.833 139.5,117.167 139.5,114.5 Z"/></g>
<g><path style="opacity:1" fill="#af84cf" d="M 44.5,113.5 C 39.4335,114.712 35.6001,117.712 33,122.5C 31.6052,127.606 33.4386,130.939 38.5,132.5C 41.9741,131.598 44.9741,129.932 47.5,127.5C 45.1201,132.525 41.1201,134.692 35.5,134C 30.074,131.317 28.4073,127.15 30.5,121.5C 31.9063,121.027 32.573,120.027 32.5,118.5C 34.671,116.5 37.0043,114.666 39.5,113C 41.3869,112.22 43.0536,112.387 44.5,113.5 Z"/></g>
<g><path style="opacity:1" fill="#aa2c5f" d="M 87.5,117.5 C 90.1242,122.938 90.1242,128.271 87.5,133.5C 85.6934,133.677 83.6934,133.344 81.5,132.5C 85.4226,127.905 85.4226,123.238 81.5,118.5C 83.2646,117.539 85.2646,117.205 87.5,117.5 Z"/></g>
<g><path style="opacity:1" fill="#b33160" d="M 64.5,124.5 C 67.2139,127.215 70.2139,129.549 73.5,131.5C 73.5,131.833 73.5,132.167 73.5,132.5C 71.0306,133.227 68.6973,133.56 66.5,133.5C 63.8333,131.5 61.5,129.167 59.5,126.5C 61.0276,125.691 62.6943,125.024 64.5,124.5 Z"/></g>
<g><path style="opacity:1" fill="#515151" d="M 160.5,130.5 C 161.946,129.387 163.613,129.22 165.5,130C 163.954,131.44 163.121,133.273 163,135.5C 162.95,133.256 162.117,131.589 160.5,130.5 Z"/></g>
<g><path style="opacity:1" fill="#6f6f6f" d="M 178.5,129.5 C 180.908,130.315 181.741,131.981 181,134.5C 180,133.167 179,133.167 178,134.5C 178.019,132.893 178.185,131.226 178.5,129.5 Z"/></g>
<g><path style="opacity:1" fill="#c23361" d="M 30.5,121.5 C 28.4073,127.15 30.074,131.317 35.5,134C 41.1201,134.692 45.1201,132.525 47.5,127.5C 49.1306,122.209 50.7973,122.209 52.5,127.5C 47.0091,138.265 39.0091,140.932 28.5,135.5C 26.3841,133.6 25.0507,131.267 24.5,128.5C 23.0936,123.069 25.0936,120.735 30.5,121.5 Z"/></g>
<g><path style="opacity:1" fill="#a0a0a0" d="M 97.5,129.5 C 101.909,128.899 103.242,130.566 101.5,134.5C 100.264,135.246 98.9305,135.579 97.5,135.5C 97.5,133.5 97.5,131.5 97.5,129.5 Z"/></g>
<g><path style="opacity:1" fill="#8a8a8a" d="M 129.5,129.5 C 133.838,129.622 134.172,129.955 130.5,130.5C 130.896,134.956 131.896,135.29 133.5,131.5C 134.914,134.59 133.914,135.757 130.5,135C 128.17,133.512 127.836,131.679 129.5,129.5 Z"/></g>
<g><path style="opacity:1" fill="#9f9f9f" d="M 194.5,129.5 C 196.035,130.844 197.368,132.511 198.5,134.5C 197.311,135.429 195.978,135.762 194.5,135.5C 194.5,133.5 194.5,131.5 194.5,129.5 Z"/></g>
<g><path style="opacity:1" fill="#d03762" d="M 66.5,133.5 C 68.6973,133.56 71.0306,133.227 73.5,132.5C 76.204,133.714 78.8707,133.714 81.5,132.5C 83.6934,133.344 85.6934,133.677 87.5,133.5C 83.9562,138.048 79.2895,139.548 73.5,138C 70.7982,136.988 68.4649,135.488 66.5,133.5 Z"/></g>
</svg>
