<?xml version="1.0" encoding="UTF-8"?>
<!DOCTYPE svg PUBLIC "-//W3C//DTD SVG 1.1//EN" "http://www.w3.org/Graphics/SVG/1.1/DTD/svg11.dtd">
<svg xmlns="http://www.w3.org/2000/svg" version="1.1" width="920px" height="275px" style="shape-rendering:geometricPrecision; text-rendering:geometricPrecision; image-rendering:optimizeQuality; fill-rule:evenodd; clip-rule:evenodd" xmlns:xlink="http://www.w3.org/1999/xlink">
<g><path style="opacity:1" fill="#fefffe" d="M -0.5,-0.5 C 4.5,-0.5 9.5,-0.5 14.5,-0.5C 14.5,4.5 14.5,9.5 14.5,14.5C 9.5,14.5 4.5,14.5 -0.5,14.5C -0.5,9.5 -0.5,4.5 -0.5,-0.5 Z"/></g>
<g><path style="opacity:1" fill="#e6e6e6" d="M 14.5,-0.5 C 19.5,-0.5 24.5,-0.5 29.5,-0.5C 29.5,4.5 29.5,9.5 29.5,14.5C 24.5,14.5 19.5,14.5 14.5,14.5C 14.5,9.5 14.5,4.5 14.5,-0.5 Z"/></g>
<g><path style="opacity:1" fill="#fefffe" d="M 29.5,-0.5 C 34.5,-0.5 39.5,-0.5 44.5,-0.5C 44.5,4.5 44.5,9.5 44.5,14.5C 39.5,14.5 34.5,14.5 29.5,14.5C 29.5,9.5 29.5,4.5 29.5,-0.5 Z"/></g>
<g><path style="opacity:1" fill="#e6e6e6" d="M 44.5,-0.5 C 49.5,-0.5 54.5,-0.5 59.5,-0.5C 59.5,4.5 59.5,9.5 59.5,14.5C 54.5,14.5 49.5,14.5 44.5,14.5C 44.5,9.5 44.5,4.5 44.5,-0.5 Z"/></g>
<g><path style="opacity:1" fill="#fefffe" d="M 59.5,-0.5 C 64.5,-0.5 69.5,-0.5 74.5,-0.5C 74.5,4.5 74.5,9.5 74.5,14.5C 69.5,14.5 64.5,14.5 59.5,14.5C 59.5,9.5 59.5,4.5 59.5,-0.5 Z"/></g>
<g><path style="opacity:1" fill="#e6e6e6" d="M 74.5,-0.5 C 79.5,-0.5 84.5,-0.5 89.5,-0.5C 89.5,4.5 89.5,9.5 89.5,14.5C 84.5,14.5 79.5,14.5 74.5,14.5C 74.5,9.5 74.5,4.5 74.5,-0.5 Z"/></g>
<g><path style="opacity:1" fill="#fefffe" d="M 89.5,-0.5 C 94.5,-0.5 99.5,-0.5 104.5,-0.5C 104.5,4.5 104.5,9.5 104.5,14.5C 99.5,14.5 94.5,14.5 89.5,14.5C 89.5,9.5 89.5,4.5 89.5,-0.5 Z"/></g>
<g><path style="opacity:1" fill="#e6e6e6" d="M 104.5,-0.5 C 109.5,-0.5 114.5,-0.5 119.5,-0.5C 119.5,4.5 119.5,9.5 119.5,14.5C 114.5,14.5 109.5,14.5 104.5,14.5C 104.5,9.5 104.5,4.5 104.5,-0.5 Z"/></g>
<g><path style="opacity:1" fill="#fefffe" d="M 119.5,-0.5 C 124.5,-0.5 129.5,-0.5 134.5,-0.5C 134.5,4.5 134.5,9.5 134.5,14.5C 129.5,14.5 124.5,14.5 119.5,14.5C 119.5,9.5 119.5,4.5 119.5,-0.5 Z"/></g>
<g><path style="opacity:1" fill="#e6e6e6" d="M 134.5,-0.5 C 139.5,-0.5 144.5,-0.5 149.5,-0.5C 149.5,4.5 149.5,9.5 149.5,14.5C 144.5,14.5 139.5,14.5 134.5,14.5C 134.5,9.5 134.5,4.5 134.5,-0.5 Z"/></g>
<g><path style="opacity:1" fill="#fefffe" d="M 149.5,-0.5 C 154.5,-0.5 159.5,-0.5 164.5,-0.5C 164.5,4.5 164.5,9.5 164.5,14.5C 159.5,14.5 154.5,14.5 149.5,14.5C 149.5,9.5 149.5,4.5 149.5,-0.5 Z"/></g>
<g><path style="opacity:1" fill="#e6e6e6" d="M 164.5,-0.5 C 169.5,-0.5 174.5,-0.5 179.5,-0.5C 179.5,4.5 179.5,9.5 179.5,14.5C 174.5,14.5 169.5,14.5 164.5,14.5C 164.5,9.5 164.5,4.5 164.5,-0.5 Z"/></g>
<g><path style="opacity:1" fill="#fefffe" d="M 179.5,-0.5 C 184.5,-0.5 189.5,-0.5 194.5,-0.5C 194.5,4.5 194.5,9.5 194.5,14.5C 189.5,14.5 184.5,14.5 179.5,14.5C 179.5,9.5 179.5,4.5 179.5,-0.5 Z"/></g>
<g><path style="opacity:1" fill="#e6e6e6" d="M 194.5,-0.5 C 199.5,-0.5 204.5,-0.5 209.5,-0.5C 209.5,4.5 209.5,9.5 209.5,14.5C 204.5,14.5 199.5,14.5 194.5,14.5C 194.5,9.5 194.5,4.5 194.5,-0.5 Z"/></g>
<g><path style="opacity:1" fill="#fefffe" d="M 209.5,-0.5 C 214.5,-0.5 219.5,-0.5 224.5,-0.5C 224.5,4.5 224.5,9.5 224.5,14.5C 219.5,14.5 214.5,14.5 209.5,14.5C 209.5,9.5 209.5,4.5 209.5,-0.5 Z"/></g>
<g><path style="opacity:1" fill="#e6e6e6" d="M 224.5,-0.5 C 229.5,-0.5 234.5,-0.5 239.5,-0.5C 239.5,4.5 239.5,9.5 239.5,14.5C 234.5,14.5 229.5,14.5 224.5,14.5C 224.5,9.5 224.5,4.5 224.5,-0.5 Z"/></g>
<g><path style="opacity:1" fill="#fefffe" d="M 239.5,-0.5 C 244.5,-0.5 249.5,-0.5 254.5,-0.5C 254.5,4.5 254.5,9.5 254.5,14.5C 249.5,14.5 244.5,14.5 239.5,14.5C 239.5,9.5 239.5,4.5 239.5,-0.5 Z"/></g>
<g><path style="opacity:1" fill="#e6e6e6" d="M 254.5,-0.5 C 259.5,-0.5 264.5,-0.5 269.5,-0.5C 269.5,4.5 269.5,9.5 269.5,14.5C 264.5,14.5 259.5,14.5 254.5,14.5C 254.5,9.5 254.5,4.5 254.5,-0.5 Z"/></g>
<g><path style="opacity:1" fill="#fefffe" d="M 269.5,-0.5 C 274.5,-0.5 279.5,-0.5 284.5,-0.5C 284.5,4.5 284.5,9.5 284.5,14.5C 279.5,14.5 274.5,14.5 269.5,14.5C 269.5,9.5 269.5,4.5 269.5,-0.5 Z"/></g>
<g><path style="opacity:1" fill="#e6e6e6" d="M 284.5,-0.5 C 289.5,-0.5 294.5,-0.5 299.5,-0.5C 299.5,4.5 299.5,9.5 299.5,14.5C 294.5,14.5 289.5,14.5 284.5,14.5C 284.5,9.5 284.5,4.5 284.5,-0.5 Z"/></g>
<g><path style="opacity:1" fill="#fefffe" d="M 299.5,-0.5 C 304.5,-0.5 309.5,-0.5 314.5,-0.5C 314.5,4.5 314.5,9.5 314.5,14.5C 309.5,14.5 304.5,14.5 299.5,14.5C 299.5,9.5 299.5,4.5 299.5,-0.5 Z"/></g>
<g><path style="opacity:1" fill="#e6e6e6" d="M 314.5,-0.5 C 319.5,-0.5 324.5,-0.5 329.5,-0.5C 329.5,4.5 329.5,9.5 329.5,14.5C 324.5,14.5 319.5,14.5 314.5,14.5C 314.5,9.5 314.5,4.5 314.5,-0.5 Z"/></g>
<g><path style="opacity:1" fill="#fefffe" d="M 329.5,-0.5 C 334.5,-0.5 339.5,-0.5 344.5,-0.5C 344.5,4.5 344.5,9.5 344.5,14.5C 339.5,14.5 334.5,14.5 329.5,14.5C 329.5,9.5 329.5,4.5 329.5,-0.5 Z"/></g>
<g><path style="opacity:1" fill="#e6e6e6" d="M 344.5,-0.5 C 349.5,-0.5 354.5,-0.5 359.5,-0.5C 359.5,4.5 359.5,9.5 359.5,14.5C 354.5,14.5 349.5,14.5 344.5,14.5C 344.5,9.5 344.5,4.5 344.5,-0.5 Z"/></g>
<g><path style="opacity:1" fill="#fefffe" d="M 359.5,-0.5 C 364.5,-0.5 369.5,-0.5 374.5,-0.5C 374.5,4.5 374.5,9.5 374.5,14.5C 369.5,14.5 364.5,14.5 359.5,14.5C 359.5,9.5 359.5,4.5 359.5,-0.5 Z"/></g>
<g><path style="opacity:1" fill="#e6e6e6" d="M 374.5,-0.5 C 379.5,-0.5 384.5,-0.5 389.5,-0.5C 389.5,4.5 389.5,9.5 389.5,14.5C 384.5,14.5 379.5,14.5 374.5,14.5C 374.5,9.5 374.5,4.5 374.5,-0.5 Z"/></g>
<g><path style="opacity:1" fill="#fefffe" d="M 389.5,-0.5 C 394.5,-0.5 399.5,-0.5 404.5,-0.5C 404.5,4.5 404.5,9.5 404.5,14.5C 399.5,14.5 394.5,14.5 389.5,14.5C 389.5,9.5 389.5,4.5 389.5,-0.5 Z"/></g>
<g><path style="opacity:1" fill="#e6e6e6" d="M 404.5,-0.5 C 409.5,-0.5 414.5,-0.5 419.5,-0.5C 419.5,4.5 419.5,9.5 419.5,14.5C 414.5,14.5 409.5,14.5 404.5,14.5C 404.5,9.5 404.5,4.5 404.5,-0.5 Z"/></g>
<g><path style="opacity:1" fill="#fefffe" d="M 419.5,-0.5 C 424.5,-0.5 429.5,-0.5 434.5,-0.5C 434.5,4.5 434.5,9.5 434.5,14.5C 429.5,14.5 424.5,14.5 419.5,14.5C 419.5,9.5 419.5,4.5 419.5,-0.5 Z"/></g>
<g><path style="opacity:1" fill="#e6e6e6" d="M 434.5,-0.5 C 439.5,-0.5 444.5,-0.5 449.5,-0.5C 449.5,4.5 449.5,9.5 449.5,14.5C 444.5,14.5 439.5,14.5 434.5,14.5C 434.5,9.5 434.5,4.5 434.5,-0.5 Z"/></g>
<g><path style="opacity:1" fill="#fefffe" d="M 449.5,-0.5 C 454.5,-0.5 459.5,-0.5 464.5,-0.5C 464.5,4.5 464.5,9.5 464.5,14.5C 459.5,14.5 454.5,14.5 449.5,14.5C 449.5,9.5 449.5,4.5 449.5,-0.5 Z"/></g>
<g><path style="opacity:1" fill="#e6e6e6" d="M 464.5,-0.5 C 469.5,-0.5 474.5,-0.5 479.5,-0.5C 479.5,4.5 479.5,9.5 479.5,14.5C 474.5,14.5 469.5,14.5 464.5,14.5C 464.5,9.5 464.5,4.5 464.5,-0.5 Z"/></g>
<g><path style="opacity:1" fill="#fefffe" d="M 479.5,-0.5 C 484.5,-0.5 489.5,-0.5 494.5,-0.5C 494.5,4.5 494.5,9.5 494.5,14.5C 489.5,14.5 484.5,14.5 479.5,14.5C 479.5,9.5 479.5,4.5 479.5,-0.5 Z"/></g>
<g><path style="opacity:1" fill="#e6e6e6" d="M 494.5,-0.5 C 499.5,-0.5 504.5,-0.5 509.5,-0.5C 509.5,4.5 509.5,9.5 509.5,14.5C 504.5,14.5 499.5,14.5 494.5,14.5C 494.5,9.5 494.5,4.5 494.5,-0.5 Z"/></g>
<g><path style="opacity:1" fill="#fefffe" d="M 509.5,-0.5 C 514.5,-0.5 519.5,-0.5 524.5,-0.5C 524.5,4.5 524.5,9.5 524.5,14.5C 519.5,14.5 514.5,14.5 509.5,14.5C 509.5,9.5 509.5,4.5 509.5,-0.5 Z"/></g>
<g><path style="opacity:1" fill="#e6e6e6" d="M 524.5,-0.5 C 529.5,-0.5 534.5,-0.5 539.5,-0.5C 539.5,4.5 539.5,9.5 539.5,14.5C 534.5,14.5 529.5,14.5 524.5,14.5C 524.5,9.5 524.5,4.5 524.5,-0.5 Z"/></g>
<g><path style="opacity:1" fill="#fefffe" d="M 539.5,-0.5 C 544.5,-0.5 549.5,-0.5 554.5,-0.5C 554.5,4.5 554.5,9.5 554.5,14.5C 549.5,14.5 544.5,14.5 539.5,14.5C 539.5,9.5 539.5,4.5 539.5,-0.5 Z"/></g>
<g><path style="opacity:1" fill="#e6e6e6" d="M 554.5,-0.5 C 559.5,-0.5 564.5,-0.5 569.5,-0.5C 569.5,4.5 569.5,9.5 569.5,14.5C 564.5,14.5 559.5,14.5 554.5,14.5C 554.5,9.5 554.5,4.5 554.5,-0.5 Z"/></g>
<g><path style="opacity:1" fill="#fefffe" d="M 569.5,-0.5 C 574.5,-0.5 579.5,-0.5 584.5,-0.5C 584.5,4.5 584.5,9.5 584.5,14.5C 579.5,14.5 574.5,14.5 569.5,14.5C 569.5,9.5 569.5,4.5 569.5,-0.5 Z"/></g>
<g><path style="opacity:1" fill="#e6e6e6" d="M 584.5,-0.5 C 589.5,-0.5 594.5,-0.5 599.5,-0.5C 599.5,4.5 599.5,9.5 599.5,14.5C 594.5,14.5 589.5,14.5 584.5,14.5C 584.5,9.5 584.5,4.5 584.5,-0.5 Z"/></g>
<g><path style="opacity:1" fill="#fefffe" d="M 599.5,-0.5 C 604.5,-0.5 609.5,-0.5 614.5,-0.5C 614.5,4.5 614.5,9.5 614.5,14.5C 609.5,14.5 604.5,14.5 599.5,14.5C 599.5,9.5 599.5,4.5 599.5,-0.5 Z"/></g>
<g><path style="opacity:1" fill="#e6e6e6" d="M 614.5,-0.5 C 619.5,-0.5 624.5,-0.5 629.5,-0.5C 629.5,4.5 629.5,9.5 629.5,14.5C 624.5,14.5 619.5,14.5 614.5,14.5C 614.5,9.5 614.5,4.5 614.5,-0.5 Z"/></g>
<g><path style="opacity:1" fill="#fefffe" d="M 629.5,-0.5 C 634.5,-0.5 639.5,-0.5 644.5,-0.5C 644.5,4.5 644.5,9.5 644.5,14.5C 639.5,14.5 634.5,14.5 629.5,14.5C 629.5,9.5 629.5,4.5 629.5,-0.5 Z"/></g>
<g><path style="opacity:1" fill="#e6e6e6" d="M 644.5,-0.5 C 649.5,-0.5 654.5,-0.5 659.5,-0.5C 659.5,4.5 659.5,9.5 659.5,14.5C 654.5,14.5 649.5,14.5 644.5,14.5C 644.5,9.5 644.5,4.5 644.5,-0.5 Z"/></g>
<g><path style="opacity:1" fill="#fefffe" d="M 659.5,-0.5 C 664.5,-0.5 669.5,-0.5 674.5,-0.5C 674.5,4.5 674.5,9.5 674.5,14.5C 669.5,14.5 664.5,14.5 659.5,14.5C 659.5,9.5 659.5,4.5 659.5,-0.5 Z"/></g>
<g><path style="opacity:1" fill="#e6e6e6" d="M 674.5,-0.5 C 679.5,-0.5 684.5,-0.5 689.5,-0.5C 689.5,4.5 689.5,9.5 689.5,14.5C 684.5,14.5 679.5,14.5 674.5,14.5C 674.5,9.5 674.5,4.5 674.5,-0.5 Z"/></g>
<g><path style="opacity:1" fill="#fefffe" d="M 689.5,-0.5 C 694.5,-0.5 699.5,-0.5 704.5,-0.5C 704.5,4.5 704.5,9.5 704.5,14.5C 699.5,14.5 694.5,14.5 689.5,14.5C 689.5,9.5 689.5,4.5 689.5,-0.5 Z"/></g>
<g><path style="opacity:1" fill="#e6e6e6" d="M 704.5,-0.5 C 709.5,-0.5 714.5,-0.5 719.5,-0.5C 719.5,4.5 719.5,9.5 719.5,14.5C 714.5,14.5 709.5,14.5 704.5,14.5C 704.5,9.5 704.5,4.5 704.5,-0.5 Z"/></g>
<g><path style="opacity:1" fill="#fefffe" d="M 719.5,-0.5 C 724.5,-0.5 729.5,-0.5 734.5,-0.5C 734.5,4.5 734.5,9.5 734.5,14.5C 729.5,14.5 724.5,14.5 719.5,14.5C 719.5,9.5 719.5,4.5 719.5,-0.5 Z"/></g>
<g><path style="opacity:1" fill="#e6e6e6" d="M 734.5,-0.5 C 739.5,-0.5 744.5,-0.5 749.5,-0.5C 749.5,4.5 749.5,9.5 749.5,14.5C 744.5,14.5 739.5,14.5 734.5,14.5C 734.5,9.5 734.5,4.5 734.5,-0.5 Z"/></g>
<g><path style="opacity:1" fill="#fefffe" d="M 749.5,-0.5 C 754.5,-0.5 759.5,-0.5 764.5,-0.5C 764.5,4.5 764.5,9.5 764.5,14.5C 759.5,14.5 754.5,14.5 749.5,14.5C 749.5,9.5 749.5,4.5 749.5,-0.5 Z"/></g>
<g><path style="opacity:1" fill="#e6e6e6" d="M 764.5,-0.5 C 769.5,-0.5 774.5,-0.5 779.5,-0.5C 779.5,4.5 779.5,9.5 779.5,14.5C 774.5,14.5 769.5,14.5 764.5,14.5C 764.5,9.5 764.5,4.5 764.5,-0.5 Z"/></g>
<g><path style="opacity:1" fill="#fefffe" d="M 779.5,-0.5 C 783.5,-0.5 787.5,-0.5 791.5,-0.5C 791.838,71.8433 791.504,136.843 790.5,194.5C 786.833,194.5 783.167,194.5 779.5,194.5C 779.5,189.5 779.5,184.5 779.5,179.5C 783.167,179.5 786.833,179.5 790.5,179.5C 790.5,174.5 790.5,169.5 790.5,164.5C 786.833,164.5 783.167,164.5 779.5,164.5C 779.5,159.5 779.5,154.5 779.5,149.5C 783.167,149.5 786.833,149.5 790.5,149.5C 790.5,144.5 790.5,139.5 790.5,134.5C 786.833,134.5 783.167,134.5 779.5,134.5C 779.5,129.5 779.5,124.5 779.5,119.5C 783.167,119.5 786.833,119.5 790.5,119.5C 790.5,114.5 790.5,109.5 790.5,104.5C 786.833,104.5 783.167,104.5 779.5,104.5C 779.5,99.5 779.5,94.5 779.5,89.5C 783.167,89.5 786.833,89.5 790.5,89.5C 790.5,84.5 790.5,79.5 790.5,74.5C 786.833,74.5 783.167,74.5 779.5,74.5C 779.5,69.5 779.5,64.5 779.5,59.5C 783.167,59.5 786.833,59.5 790.5,59.5C 790.5,54.5 790.5,49.5 790.5,44.5C 786.833,44.5 783.167,44.5 779.5,44.5C 779.5,39.5 779.5,34.5 779.5,29.5C 783.167,29.5 786.833,29.5 790.5,29.5C 790.5,24.5 790.5,19.5 790.5,14.5C 786.833,14.5 783.167,14.5 779.5,14.5C 779.5,9.5 779.5,4.5 779.5,-0.5 Z"/></g>
<g><path style="opacity:1" fill="#e6e6e6" d="M 825.5,-0.5 C 830.167,-0.5 834.833,-0.5 839.5,-0.5C 839.5,4.5 839.5,9.5 839.5,14.5C 834.833,14.5 830.167,14.5 825.5,14.5C 825.5,9.5 825.5,4.5 825.5,-0.5 Z"/></g>
<g><path style="opacity:1" fill="#fefffe" d="M 839.5,-0.5 C 844.5,-0.5 849.5,-0.5 854.5,-0.5C 854.5,4.5 854.5,9.5 854.5,14.5C 849.5,14.5 844.5,14.5 839.5,14.5C 839.5,9.5 839.5,4.5 839.5,-0.5 Z"/></g>
<g><path style="opacity:1" fill="#e6e6e6" d="M 854.5,-0.5 C 859.5,-0.5 864.5,-0.5 869.5,-0.5C 869.5,4.5 869.5,9.5 869.5,14.5C 864.5,14.5 859.5,14.5 854.5,14.5C 854.5,9.5 854.5,4.5 854.5,-0.5 Z"/></g>
<g><path style="opacity:1" fill="#fefffe" d="M 869.5,-0.5 C 874.5,-0.5 879.5,-0.5 884.5,-0.5C 884.5,4.5 884.5,9.5 884.5,14.5C 879.5,14.5 874.5,14.5 869.5,14.5C 869.5,9.5 869.5,4.5 869.5,-0.5 Z"/></g>
<g><path style="opacity:1" fill="#efefef" d="M 884.5,-0.5 C 896.167,-0.5 907.833,-0.5 919.5,-0.5C 919.5,64.5 919.5,129.5 919.5,194.5C 917.833,194.5 916.167,194.5 914.5,194.5C 914.5,189.5 914.5,184.5 914.5,179.5C 909.833,179.5 905.167,179.5 900.5,179.5C 888.171,163.825 876.171,147.825 864.5,131.5C 865.357,130.575 866.357,129.908 867.5,129.5C 869.256,130.552 869.923,132.219 869.5,134.5C 874.5,134.5 879.5,134.5 884.5,134.5C 884.5,139.5 884.5,144.5 884.5,149.5C 889.5,149.5 894.5,149.5 899.5,149.5C 899.5,144.5 899.5,139.5 899.5,134.5C 904.5,134.5 909.5,134.5 914.5,134.5C 914.5,129.5 914.5,124.5 914.5,119.5C 909.5,119.5 904.5,119.5 899.5,119.5C 899.5,114.5 899.5,109.5 899.5,104.5C 904.5,104.5 909.5,104.5 914.5,104.5C 914.5,99.5 914.5,94.5 914.5,89.5C 909.073,89.7825 903.74,89.4491 898.5,88.5C 899.368,84.6857 900.368,81.019 901.5,77.5C 901.351,78.552 901.517,79.552 902,80.5C 902.495,78.5273 902.662,76.5273 902.5,74.5C 906.5,74.5 910.5,74.5 914.5,74.5C 914.5,69.5 914.5,64.5 914.5,59.5C 909.5,59.5 904.5,59.5 899.5,59.5C 899.5,54.5 899.5,49.5 899.5,44.5C 894.5,44.5 889.5,44.5 884.5,44.5C 884.5,39.5 884.5,34.5 884.5,29.5C 884.5,24.5 884.5,19.5 884.5,14.5C 884.5,9.5 884.5,4.5 884.5,-0.5 Z"/></g>
<g><path style="opacity:1" fill="#010101" d="M 792.5,-0.5 C 802.833,-0.5 813.167,-0.5 823.5,-0.5C 823.5,36.1667 823.5,72.8333 823.5,109.5C 826.713,109.81 829.713,109.477 832.5,108.5C 855.95,104.378 868.617,90.3782 870.5,66.5C 880.833,66.5 891.167,66.5 901.5,66.5C 901.5,70.1667 901.5,73.8333 901.5,77.5C 900.368,81.019 899.368,84.6857 898.5,88.5C 893.028,105.955 882.695,119.622 867.5,129.5C 866.357,129.908 865.357,130.575 864.5,131.5C 876.171,147.825 888.171,163.825 900.5,179.5C 906.059,188.406 912.059,197.073 918.5,205.5C 906.185,206.499 893.851,206.832 881.5,206.5C 871.853,192.86 861.853,179.527 851.5,166.5C 846.464,158.283 840.798,150.45 834.5,143C 831.13,140.922 827.463,140.089 823.5,140.5C 823.5,162.5 823.5,184.5 823.5,206.5C 813.167,206.5 802.833,206.5 792.5,206.5C 792.5,137.5 792.5,68.5 792.5,-0.5 Z"/></g>
<g><path style="opacity:1" fill="#979797" d="M 823.5,-0.5 C 823.833,-0.5 824.167,-0.5 824.5,-0.5C 824.5,35.8333 824.5,72.1667 824.5,108.5C 827.167,108.5 829.833,108.5 832.5,108.5C 829.713,109.477 826.713,109.81 823.5,109.5C 823.5,72.8333 823.5,36.1667 823.5,-0.5 Z"/></g>
<g><path style="opacity:1" fill="#e6e6e6" d="M -0.5,14.5 C 4.5,14.5 9.5,14.5 14.5,14.5C 14.5,19.5 14.5,24.5 14.5,29.5C 9.5,29.5 4.5,29.5 -0.5,29.5C -0.5,24.5 -0.5,19.5 -0.5,14.5 Z"/></g>
<g><path style="opacity:1" fill="#fefffe" d="M 14.5,14.5 C 19.5,14.5 24.5,14.5 29.5,14.5C 29.5,19.5 29.5,24.5 29.5,29.5C 24.5,29.5 19.5,29.5 14.5,29.5C 14.5,24.5 14.5,19.5 14.5,14.5 Z"/></g>
<g><path style="opacity:1" fill="#e6e6e6" d="M 839.5,14.5 C 844.5,14.5 849.5,14.5 854.5,14.5C 854.5,19.5 854.5,24.5 854.5,29.5C 849.5,29.5 844.5,29.5 839.5,29.5C 839.5,24.5 839.5,19.5 839.5,14.5 Z"/></g>
<g><path style="opacity:1" fill="#fefffe" d="M 854.5,14.5 C 859.5,14.5 864.5,14.5 869.5,14.5C 869.5,19.5 869.5,24.5 869.5,29.5C 864.5,29.5 859.5,29.5 854.5,29.5C 854.5,24.5 854.5,19.5 854.5,14.5 Z"/></g>
<g><path style="opacity:1" fill="#e6e6e6" d="M 869.5,14.5 C 874.5,14.5 879.5,14.5 884.5,14.5C 884.5,19.5 884.5,24.5 884.5,29.5C 879.5,29.5 874.5,29.5 869.5,29.5C 869.5,24.5 869.5,19.5 869.5,14.5 Z"/></g>
<g><path style="opacity:1" fill="#fefefe" d="M -0.5,29.5 C 4.5,29.5 9.5,29.5 14.5,29.5C 14.5,33.5 14.5,37.5 14.5,41.5C 9.63671,41.1805 4.97005,41.5139 0.5,42.5C 0.166667,42.5 -0.166667,42.5 -0.5,42.5C -0.5,38.1667 -0.5,33.8333 -0.5,29.5 Z"/></g>
<g><path style="opacity:1" fill="#f1f1f1" d="M 791.5,-0.5 C 791.833,-0.5 792.167,-0.5 792.5,-0.5C 792.5,68.5 792.5,137.5 792.5,206.5C 793.091,207.151 793.757,207.818 794.5,208.5C 799.456,209.494 804.456,209.827 809.5,209.5C 809.5,214.5 809.5,219.5 809.5,224.5C 814.5,224.5 819.5,224.5 824.5,224.5C 824.5,229.5 824.5,234.5 824.5,239.5C 829.5,239.5 834.5,239.5 839.5,239.5C 839.5,244.5 839.5,249.5 839.5,254.5C 839.5,259.5 839.5,264.5 839.5,269.5C 834.5,269.5 829.5,269.5 824.5,269.5C 824.5,264.5 824.5,259.5 824.5,254.5C 819.5,254.5 814.5,254.5 809.5,254.5C 809.5,259.5 809.5,264.5 809.5,269.5C 804.5,269.5 799.5,269.5 794.5,269.5C 794.5,264.5 794.5,259.5 794.5,254.5C 794.5,249.5 794.5,244.5 794.5,239.5C 789.5,239.5 784.5,239.5 779.5,239.5C 779.5,234.5 779.5,229.5 779.5,224.5C 774.5,224.5 769.5,224.5 764.5,224.5C 764.5,219.5 764.5,214.5 764.5,209.5C 759.5,209.5 754.5,209.5 749.5,209.5C 749.5,204.5 749.5,199.5 749.5,194.5C 744.5,194.5 739.5,194.5 734.5,194.5C 734.5,189.5 734.5,184.5 734.5,179.5C 734.5,174.5 734.5,169.5 734.5,164.5C 734.5,159.5 734.5,154.5 734.5,149.5C 734.5,144.5 734.5,139.5 734.5,134.5C 734.5,129.5 734.5,124.5 734.5,119.5C 731.061,119.747 727.728,119.414 724.5,118.5C 735.121,101.608 750.454,94.9409 770.5,98.5C 770.667,87.8281 770.5,77.1615 770,66.5C 750.283,64.7813 734.116,71.4479 721.5,86.5C 720.833,80.1667 720.167,73.8333 719.5,67.5C 709.167,67.5 698.833,67.5 688.5,67.5C 688.5,109.833 688.5,152.167 688.5,194.5C 684.044,194.354 679.378,194.354 674.5,194.5C 674.5,189.5 674.5,184.5 674.5,179.5C 669.5,179.5 664.5,179.5 659.5,179.5C 659.5,184.5 659.5,189.5 659.5,194.5C 654.5,194.5 649.5,194.5 644.5,194.5C 644.5,199.5 644.5,204.5 644.5,209.5C 639.5,209.5 634.5,209.5 629.5,209.5C 629.244,207.208 629.577,205.041 630.5,203C 629.906,202.536 629.239,202.369 628.5,202.5C 662.202,181.936 674.369,152.269 665,113.5C 648.311,74.2343 618.811,58.0676 576.5,65C 560.14,69.8357 546.474,78.669 535.5,91.5C 532.316,89.5864 528.649,88.9197 524.5,89.5C 524.5,94.5 524.5,99.5 524.5,104.5C 519.105,104.267 513.772,104.6 508.5,105.5C 511.78,92.8766 515.447,80.3766 519.5,68C 508.839,67.5002 498.172,67.3335 487.5,67.5C 479.467,99.2994 470.967,130.966 462,162.5C 453.535,130.642 445.702,98.642 438.5,66.5C 428.167,66.5 417.833,66.5 407.5,66.5C 399.986,98.5545 392.153,130.554 384,162.5C 374.803,131.011 366.303,99.3443 358.5,67.5C 359.388,64.9455 359.721,62.2788 359.5,59.5C 354.5,59.5 349.5,59.5 344.5,59.5C 344.5,54.5 344.5,49.5 344.5,44.5C 339.5,44.5 334.5,44.5 329.5,44.5C 329.5,49.5 329.5,54.5 329.5,59.5C 324.5,59.5 319.5,59.5 314.5,59.5C 314.5,64.5 314.5,69.5 314.5,74.5C 309.5,74.5 304.5,74.5 299.5,74.5C 299.5,69.5 299.5,64.5 299.5,59.5C 294.5,59.5 289.5,59.5 284.5,59.5C 284.5,63.1667 284.5,66.8333 284.5,70.5C 232.704,52.9806 197.538,69.9806 179,121.5C 163.365,96.8941 151.531,70.5608 143.5,42.5C 130.833,42.5 118.167,42.5 105.5,42.5C 104.515,38.3656 104.182,34.0323 104.5,29.5C 99.5,29.5 94.5,29.5 89.5,29.5C 89.5,34.5 89.5,39.5 89.5,44.5C 94.5,44.5 99.5,44.5 104.5,44.5C 104.5,49.5 104.5,54.5 104.5,59.5C 99.5,59.5 94.5,59.5 89.5,59.5C 89.5,64.5 89.5,69.5 89.5,74.5C 94.5,74.5 99.5,74.5 104.5,74.5C 104.5,79.5 104.5,84.5 104.5,89.5C 99.5,89.5 94.5,89.5 89.5,89.5C 89.5,94.5 89.5,99.5 89.5,104.5C 94.5,104.5 99.5,104.5 104.5,104.5C 104.5,109.5 104.5,114.5 104.5,119.5C 99.5,119.5 94.5,119.5 89.5,119.5C 89.5,124.5 89.5,129.5 89.5,134.5C 94.5,134.5 99.5,134.5 104.5,134.5C 104.187,138.042 104.521,141.375 105.5,144.5C 98.487,167.513 83.1537,176.346 59.5,171C 46.7814,165.615 39.2814,156.115 37,142.5C 36.5,109.168 36.3333,75.835 36.5,42.5C 24.5,42.5 12.5,42.5 0.5,42.5C 4.97005,41.5139 9.63671,41.1805 14.5,41.5C 14.5,37.5 14.5,33.5 14.5,29.5C 19.5,29.5 24.5,29.5 29.5,29.5C 29.5,24.5 29.5,19.5 29.5,14.5C 34.5,14.5 39.5,14.5 44.5,14.5C 49.5,14.5 54.5,14.5 59.5,14.5C 64.5,14.5 69.5,14.5 74.5,14.5C 79.5,14.5 84.5,14.5 89.5,14.5C 94.5,14.5 99.5,14.5 104.5,14.5C 109.5,14.5 114.5,14.5 119.5,14.5C 124.5,14.5 129.5,14.5 134.5,14.5C 139.5,14.5 144.5,14.5 149.5,14.5C 154.5,14.5 159.5,14.5 164.5,14.5C 169.5,14.5 174.5,14.5 179.5,14.5C 184.5,14.5 189.5,14.5 194.5,14.5C 199.5,14.5 204.5,14.5 209.5,14.5C 214.5,14.5 219.5,14.5 224.5,14.5C 229.5,14.5 234.5,14.5 239.5,14.5C 244.5,14.5 249.5,14.5 254.5,14.5C 259.5,14.5 264.5,14.5 269.5,14.5C 274.5,14.5 279.5,14.5 284.5,14.5C 289.5,14.5 294.5,14.5 299.5,14.5C 304.5,14.5 309.5,14.5 314.5,14.5C 319.5,14.5 324.5,14.5 329.5,14.5C 334.5,14.5 339.5,14.5 344.5,14.5C 349.5,14.5 354.5,14.5 359.5,14.5C 364.5,14.5 369.5,14.5 374.5,14.5C 379.5,14.5 384.5,14.5 389.5,14.5C 394.5,14.5 399.5,14.5 404.5,14.5C 409.5,14.5 414.5,14.5 419.5,14.5C 424.5,14.5 429.5,14.5 434.5,14.5C 439.5,14.5 444.5,14.5 449.5,14.5C 454.5,14.5 459.5,14.5 464.5,14.5C 469.5,14.5 474.5,14.5 479.5,14.5C 484.5,14.5 489.5,14.5 494.5,14.5C 499.5,14.5 504.5,14.5 509.5,14.5C 514.5,14.5 519.5,14.5 524.5,14.5C 529.5,14.5 534.5,14.5 539.5,14.5C 544.5,14.5 549.5,14.5 554.5,14.5C 559.5,14.5 564.5,14.5 569.5,14.5C 574.5,14.5 579.5,14.5 584.5,14.5C 589.5,14.5 594.5,14.5 599.5,14.5C 604.5,14.5 609.5,14.5 614.5,14.5C 619.5,14.5 624.5,14.5 629.5,14.5C 634.5,14.5 639.5,14.5 644.5,14.5C 649.5,14.5 654.5,14.5 659.5,14.5C 664.5,14.5 669.5,14.5 674.5,14.5C 679.5,14.5 684.5,14.5 689.5,14.5C 694.5,14.5 699.5,14.5 704.5,14.5C 709.5,14.5 714.5,14.5 719.5,14.5C 724.5,14.5 729.5,14.5 734.5,14.5C 739.5,14.5 744.5,14.5 749.5,14.5C 754.5,14.5 759.5,14.5 764.5,14.5C 769.5,14.5 774.5,14.5 779.5,14.5C 783.167,14.5 786.833,14.5 790.5,14.5C 790.5,19.5 790.5,24.5 790.5,29.5C 786.833,29.5 783.167,29.5 779.5,29.5C 779.5,34.5 779.5,39.5 779.5,44.5C 783.167,44.5 786.833,44.5 790.5,44.5C 790.5,49.5 790.5,54.5 790.5,59.5C 786.833,59.5 783.167,59.5 779.5,59.5C 779.5,64.5 779.5,69.5 779.5,74.5C 783.167,74.5 786.833,74.5 790.5,74.5C 790.5,79.5 790.5,84.5 790.5,89.5C 786.833,89.5 783.167,89.5 779.5,89.5C 779.5,94.5 779.5,99.5 779.5,104.5C 783.167,104.5 786.833,104.5 790.5,104.5C 790.5,109.5 790.5,114.5 790.5,119.5C 786.833,119.5 783.167,119.5 779.5,119.5C 779.5,124.5 779.5,129.5 779.5,134.5C 783.167,134.5 786.833,134.5 790.5,134.5C 790.5,139.5 790.5,144.5 790.5,149.5C 786.833,149.5 783.167,149.5 779.5,149.5C 779.5,154.5 779.5,159.5 779.5,164.5C 783.167,164.5 786.833,164.5 790.5,164.5C 790.5,169.5 790.5,174.5 790.5,179.5C 786.833,179.5 783.167,179.5 779.5,179.5C 779.5,184.5 779.5,189.5 779.5,194.5C 783.167,194.5 786.833,194.5 790.5,194.5C 791.504,136.843 791.838,71.8433 791.5,-0.5 Z"/></g>
<g><path style="opacity:1" fill="#e6e6e6" d="M 839.5,29.5 C 839.5,34.5 839.5,39.5 839.5,44.5C 834.833,44.5 830.167,44.5 825.5,44.5C 825.5,39.5 825.5,34.5 825.5,29.5C 830.167,29.5 834.833,29.5 839.5,29.5 Z"/></g>
<g><path style="opacity:1" fill="#fefffe" d="M 839.5,29.5 C 844.5,29.5 849.5,29.5 854.5,29.5C 854.5,34.5 854.5,39.5 854.5,44.5C 849.5,44.5 844.5,44.5 839.5,44.5C 839.5,39.5 839.5,34.5 839.5,29.5 Z"/></g>
<g><path style="opacity:1" fill="#e6e6e6" d="M 854.5,29.5 C 859.5,29.5 864.5,29.5 869.5,29.5C 869.5,34.5 869.5,39.5 869.5,44.5C 864.5,44.5 859.5,44.5 854.5,44.5C 854.5,39.5 854.5,34.5 854.5,29.5 Z"/></g>
<g><path style="opacity:1" fill="#fefffe" d="M 869.5,29.5 C 874.5,29.5 879.5,29.5 884.5,29.5C 884.5,34.5 884.5,39.5 884.5,44.5C 879.5,44.5 874.5,44.5 869.5,44.5C 869.5,39.5 869.5,34.5 869.5,29.5 Z"/></g>
<g><path style="opacity:1" fill="#6fda44" d="M -0.5,42.5 C -0.166667,42.5 0.166667,42.5 0.5,42.5C 12.5,42.5 24.5,42.5 36.5,42.5C 36.3333,75.835 36.5,109.168 37,142.5C 39.2814,156.115 46.7814,165.615 59.5,171C 83.1537,176.346 98.487,167.513 105.5,144.5C 105.5,110.5 105.5,76.5 105.5,42.5C 118.167,42.5 130.833,42.5 143.5,42.5C 151.531,70.5608 163.365,96.8941 179,121.5C 197.538,69.9806 232.704,52.9806 284.5,70.5C 314.665,88.1628 327.832,114.496 324,149.5C 322.937,154.662 321.437,159.662 319.5,164.5C 311.997,181.003 300.33,193.67 284.5,202.5C 255.663,214.875 227.996,212.542 201.5,195.5C 199.021,205.08 197.021,214.747 195.5,224.5C 192.869,234.263 190.869,244.263 189.5,254.5C 187.323,260.191 185.99,266.191 185.5,272.5C 172.833,272.5 160.167,272.5 147.5,272.5C 147.5,271.5 147.5,270.5 147.5,269.5C 154.831,235.521 162.164,201.521 169.5,167.5C 159.674,153.196 150.841,138.196 143,122.5C 147.053,161.587 131.553,189.42 96.5,206C 61.2538,216.474 32.7538,206.974 11,177.5C 5.31323,167.371 1.4799,156.704 -0.5,145.5C -0.5,111.167 -0.5,76.8333 -0.5,42.5 Z"/></g>
<g><path style="opacity:1" fill="#fefefe" d="M 105.5,42.5 C 105.5,76.5 105.5,110.5 105.5,144.5C 104.521,141.375 104.187,138.042 104.5,134.5C 99.5,134.5 94.5,134.5 89.5,134.5C 89.5,129.5 89.5,124.5 89.5,119.5C 94.5,119.5 99.5,119.5 104.5,119.5C 104.5,114.5 104.5,109.5 104.5,104.5C 99.5,104.5 94.5,104.5 89.5,104.5C 89.5,99.5 89.5,94.5 89.5,89.5C 94.5,89.5 99.5,89.5 104.5,89.5C 104.5,84.5 104.5,79.5 104.5,74.5C 99.5,74.5 94.5,74.5 89.5,74.5C 89.5,69.5 89.5,64.5 89.5,59.5C 94.5,59.5 99.5,59.5 104.5,59.5C 104.5,54.5 104.5,49.5 104.5,44.5C 99.5,44.5 94.5,44.5 89.5,44.5C 89.5,39.5 89.5,34.5 89.5,29.5C 94.5,29.5 99.5,29.5 104.5,29.5C 104.182,34.0323 104.515,38.3656 105.5,42.5 Z"/></g>
<g><path style="opacity:1" fill="#f6f6f6" d="M 824.5,-0.5 C 824.833,-0.5 825.167,-0.5 825.5,-0.5C 825.5,4.5 825.5,9.5 825.5,14.5C 830.167,14.5 834.833,14.5 839.5,14.5C 839.5,19.5 839.5,24.5 839.5,29.5C 834.833,29.5 830.167,29.5 825.5,29.5C 825.5,34.5 825.5,39.5 825.5,44.5C 830.167,44.5 834.833,44.5 839.5,44.5C 839.5,49.5 839.5,54.5 839.5,59.5C 834.833,59.5 830.167,59.5 825.5,59.5C 825.5,64.5 825.5,69.5 825.5,74.5C 830.167,74.5 834.833,74.5 839.5,74.5C 844.5,74.5 849.5,74.5 854.5,74.5C 854.5,69.5 854.5,64.5 854.5,59.5C 859.5,59.5 864.5,59.5 869.5,59.5C 869.5,54.5 869.5,49.5 869.5,44.5C 874.5,44.5 879.5,44.5 884.5,44.5C 889.5,44.5 894.5,44.5 899.5,44.5C 899.5,49.5 899.5,54.5 899.5,59.5C 904.5,59.5 909.5,59.5 914.5,59.5C 914.5,64.5 914.5,69.5 914.5,74.5C 910.5,74.5 906.5,74.5 902.5,74.5C 902.662,76.5273 902.495,78.5273 902,80.5C 901.517,79.552 901.351,78.552 901.5,77.5C 901.5,73.8333 901.5,70.1667 901.5,66.5C 891.167,66.5 880.833,66.5 870.5,66.5C 868.617,90.3782 855.95,104.378 832.5,108.5C 829.833,108.5 827.167,108.5 824.5,108.5C 824.5,72.1667 824.5,35.8333 824.5,-0.5 Z"/></g>
<g><path style="opacity:1" fill="#fefffe" d="M 839.5,59.5 C 844.5,59.5 849.5,59.5 854.5,59.5C 854.5,64.5 854.5,69.5 854.5,74.5C 849.5,74.5 844.5,74.5 839.5,74.5C 839.5,69.5 839.5,64.5 839.5,59.5 Z"/></g>
<g><path style="opacity:1" fill="#e6e6e6" d="M 839.5,59.5 C 839.5,64.5 839.5,69.5 839.5,74.5C 834.833,74.5 830.167,74.5 825.5,74.5C 825.5,69.5 825.5,64.5 825.5,59.5C 830.167,59.5 834.833,59.5 839.5,59.5 Z"/></g>
<g><path style="opacity:1" fill="#fefffe" d="M 854.5,44.5 C 859.5,44.5 864.5,44.5 869.5,44.5C 869.5,49.5 869.5,54.5 869.5,59.5C 864.5,59.5 859.5,59.5 854.5,59.5C 854.5,54.5 854.5,49.5 854.5,44.5 Z"/></g>
<g><path style="opacity:1" fill="#e6e6e6" d="M 839.5,44.5 C 844.5,44.5 849.5,44.5 854.5,44.5C 854.5,49.5 854.5,54.5 854.5,59.5C 849.5,59.5 844.5,59.5 839.5,59.5C 839.5,54.5 839.5,49.5 839.5,44.5 Z"/></g>
<g><path style="opacity:1" fill="#020202" d="M 628.5,202.5 C 602.809,213.934 577.809,212.6 553.5,198.5C 524.112,175.323 514.945,145.656 526,109.5C 528.937,103.288 532.104,97.2881 535.5,91.5C 546.474,78.669 560.14,69.8357 576.5,65C 618.811,58.0676 648.311,74.2343 665,113.5C 674.369,152.269 662.202,181.936 628.5,202.5 Z"/></g>
<g><path style="opacity:1" fill="#020202" d="M 358.5,67.5 C 366.303,99.3443 374.803,131.011 384,162.5C 392.153,130.554 399.986,98.5545 407.5,66.5C 417.833,66.5 428.167,66.5 438.5,66.5C 445.702,98.642 453.535,130.642 462,162.5C 470.967,130.966 479.467,99.2994 487.5,67.5C 498.172,67.3335 508.839,67.5002 519.5,68C 515.447,80.3766 511.78,92.8766 508.5,105.5C 498.369,139.023 488.702,172.689 479.5,206.5C 468.833,206.5 458.167,206.5 447.5,206.5C 442.814,186.423 437.814,166.423 432.5,146.5C 429.494,134.142 426.327,121.809 423,109.5C 414.359,141.731 406.192,174.065 398.5,206.5C 387.833,206.5 377.167,206.5 366.5,206.5C 353.577,160.062 340.244,113.729 326.5,67.5C 337.228,66.1921 347.894,66.1921 358.5,67.5 Z"/></g>
<g><path style="opacity:1" fill="#030303" d="M 724.5,118.5 C 722.788,121.261 721.622,124.261 721,127.5C 720.5,153.831 720.333,180.165 720.5,206.5C 709.833,206.5 699.167,206.5 688.5,206.5C 688.5,202.5 688.5,198.5 688.5,194.5C 688.5,152.167 688.5,109.833 688.5,67.5C 698.833,67.5 709.167,67.5 719.5,67.5C 719.17,74.1998 719.503,80.8665 720.5,87.5C 721.107,87.3764 721.44,87.0431 721.5,86.5C 734.116,71.4479 750.283,64.7813 770,66.5C 770.5,77.1615 770.667,87.8281 770.5,98.5C 750.454,94.9409 735.121,101.608 724.5,118.5 Z"/></g>
<g><path style="opacity:1" fill="#6d6d6d" d="M 719.5,67.5 C 720.167,73.8333 720.833,80.1667 721.5,86.5C 721.44,87.0431 721.107,87.3764 720.5,87.5C 719.503,80.8665 719.17,74.1998 719.5,67.5 Z"/></g>
<g><path style="opacity:1" fill="#e4e4e4" d="M 586.5,94.5 C 592.167,93.1667 597.833,93.1667 603.5,94.5C 602.167,94.5 600.833,94.5 599.5,94.5C 599.5,97.8333 599.5,101.167 599.5,104.5C 594.5,104.5 589.5,104.5 584.5,104.5C 584.5,101.5 584.5,98.5 584.5,95.5C 586.527,95.6621 588.527,95.4955 590.5,95C 589.207,94.51 587.873,94.3433 586.5,94.5 Z"/></g>
<g><path style="opacity:1" fill="#f8f8f8" d="M 898.5,88.5 C 903.74,89.4491 909.073,89.7825 914.5,89.5C 914.5,94.5 914.5,99.5 914.5,104.5C 909.5,104.5 904.5,104.5 899.5,104.5C 899.5,109.5 899.5,114.5 899.5,119.5C 904.5,119.5 909.5,119.5 914.5,119.5C 914.5,124.5 914.5,129.5 914.5,134.5C 909.5,134.5 904.5,134.5 899.5,134.5C 899.5,139.5 899.5,144.5 899.5,149.5C 894.5,149.5 889.5,149.5 884.5,149.5C 884.5,144.5 884.5,139.5 884.5,134.5C 879.5,134.5 874.5,134.5 869.5,134.5C 869.923,132.219 869.256,130.552 867.5,129.5C 882.695,119.622 893.028,105.955 898.5,88.5 Z"/></g>
<g><path style="opacity:1" fill="#f5f5f5" d="M 586.5,94.5 C 587.873,94.3433 589.207,94.51 590.5,95C 588.527,95.4955 586.527,95.6621 584.5,95.5C 584.5,98.5 584.5,101.5 584.5,104.5C 589.5,104.5 594.5,104.5 599.5,104.5C 599.5,101.167 599.5,97.8333 599.5,94.5C 600.833,94.5 602.167,94.5 603.5,94.5C 625.175,100.318 636.842,114.485 638.5,137C 638.347,139.216 638.014,141.383 637.5,143.5C 636.523,140.713 636.19,137.713 636.5,134.5C 634.167,134.5 631.833,134.5 629.5,134.5C 629.5,139.5 629.5,144.5 629.5,149.5C 624.5,149.5 619.5,149.5 614.5,149.5C 614.5,154.5 614.5,159.5 614.5,164.5C 609.5,164.5 604.5,164.5 599.5,164.5C 599.5,159.5 599.5,154.5 599.5,149.5C 594.5,149.5 589.5,149.5 584.5,149.5C 584.5,144.5 584.5,139.5 584.5,134.5C 579.5,134.5 574.5,134.5 569.5,134.5C 569.5,129.5 569.5,124.5 569.5,119.5C 564.901,119.2 560.401,119.533 556,120.5C 555.536,119.906 555.369,119.239 555.5,118.5C 561.769,105.229 572.102,97.2291 586.5,94.5 Z"/></g>
<g><path style="opacity:1" fill="#f1f1f1" d="M 269.5,105.5 C 269.5,115.167 269.5,124.833 269.5,134.5C 274.5,134.5 279.5,134.5 284.5,134.5C 284.5,139.5 284.5,144.5 284.5,149.5C 279.5,149.5 274.5,149.5 269.5,149.5C 269.5,154.5 269.5,159.5 269.5,164.5C 264.5,164.5 259.5,164.5 254.5,164.5C 254.5,159.5 254.5,154.5 254.5,149.5C 249.5,149.5 244.5,149.5 239.5,149.5C 239.5,154.5 239.5,159.5 239.5,164.5C 234.5,164.5 229.5,164.5 224.5,164.5C 224.5,159.5 224.5,154.5 224.5,149.5C 220.167,149.5 215.833,149.5 211.5,149.5C 212.555,134.235 217.889,120.735 227.5,109C 240.78,97.948 254.78,96.7814 269.5,105.5 Z"/></g>
<g><path style="opacity:1" fill="#e6e6e6" d="M 734.5,134.5 C 734.5,139.5 734.5,144.5 734.5,149.5C 730.167,149.5 725.833,149.5 721.5,149.5C 721.5,144.5 721.5,139.5 721.5,134.5C 725.833,134.5 730.167,134.5 734.5,134.5 Z"/></g>
<g><path style="opacity:1" fill="#f4f4f4" d="M 851.5,166.5 C 847.813,164.657 843.813,163.99 839.5,164.5C 839.5,169.5 839.5,174.5 839.5,179.5C 844.5,179.5 849.5,179.5 854.5,179.5C 854.5,184.5 854.5,189.5 854.5,194.5C 859.5,194.5 864.5,194.5 869.5,194.5C 869.5,199.5 869.5,204.5 869.5,209.5C 874.544,209.827 879.544,209.494 884.5,208.5C 883.398,207.824 882.398,207.158 881.5,206.5C 893.851,206.832 906.185,206.499 918.5,205.5C 912.059,197.073 906.059,188.406 900.5,179.5C 905.167,179.5 909.833,179.5 914.5,179.5C 914.5,184.5 914.5,189.5 914.5,194.5C 916.167,194.5 917.833,194.5 919.5,194.5C 919.5,221.167 919.5,247.833 919.5,274.5C 912.833,274.5 906.167,274.5 899.5,274.5C 899.5,272.833 899.5,271.167 899.5,269.5C 894.5,269.5 889.5,269.5 884.5,269.5C 884.5,264.5 884.5,259.5 884.5,254.5C 879.5,254.5 874.5,254.5 869.5,254.5C 869.5,259.5 869.5,264.5 869.5,269.5C 864.5,269.5 859.5,269.5 854.5,269.5C 854.5,264.5 854.5,259.5 854.5,254.5C 849.5,254.5 844.5,254.5 839.5,254.5C 839.5,249.5 839.5,244.5 839.5,239.5C 834.5,239.5 829.5,239.5 824.5,239.5C 824.5,234.5 824.5,229.5 824.5,224.5C 819.5,224.5 814.5,224.5 809.5,224.5C 809.5,219.5 809.5,214.5 809.5,209.5C 804.456,209.827 799.456,209.494 794.5,208.5C 793.757,207.818 793.091,207.151 792.5,206.5C 802.833,206.5 813.167,206.5 823.5,206.5C 823.5,184.5 823.5,162.5 823.5,140.5C 827.463,140.089 831.13,140.922 834.5,143C 840.798,150.45 846.464,158.283 851.5,166.5 Z"/></g>
<g><path style="opacity:1" fill="#eeedee" d="M 555.5,118.5 C 555.369,119.239 555.536,119.906 556,120.5C 560.401,119.533 564.901,119.2 569.5,119.5C 569.5,124.5 569.5,129.5 569.5,134.5C 574.5,134.5 579.5,134.5 584.5,134.5C 584.5,139.5 584.5,144.5 584.5,149.5C 589.5,149.5 594.5,149.5 599.5,149.5C 599.5,154.5 599.5,159.5 599.5,164.5C 604.5,164.5 609.5,164.5 614.5,164.5C 614.5,159.5 614.5,154.5 614.5,149.5C 619.5,149.5 624.5,149.5 629.5,149.5C 629.5,144.5 629.5,139.5 629.5,134.5C 631.833,134.5 634.167,134.5 636.5,134.5C 636.19,137.713 636.523,140.713 637.5,143.5C 630.22,170.585 612.553,182.419 584.5,179C 560.456,170.758 549.622,153.925 552,128.5C 552.701,124.891 553.868,121.558 555.5,118.5 Z"/></g>
<g><path style="opacity:1" fill="#f8f9f8" d="M 269.5,105.5 C 278.396,110.24 284.229,117.573 287,127.5C 289.797,152.015 279.297,167.181 255.5,173C 237.866,173.514 222.532,167.848 209.5,156C 210.117,153.723 210.784,151.556 211.5,149.5C 215.833,149.5 220.167,149.5 224.5,149.5C 224.5,154.5 224.5,159.5 224.5,164.5C 229.5,164.5 234.5,164.5 239.5,164.5C 239.5,159.5 239.5,154.5 239.5,149.5C 244.5,149.5 249.5,149.5 254.5,149.5C 254.5,154.5 254.5,159.5 254.5,164.5C 259.5,164.5 264.5,164.5 269.5,164.5C 269.5,159.5 269.5,154.5 269.5,149.5C 274.5,149.5 279.5,149.5 284.5,149.5C 284.5,144.5 284.5,139.5 284.5,134.5C 279.5,134.5 274.5,134.5 269.5,134.5C 269.5,124.833 269.5,115.167 269.5,105.5 Z"/></g>
<g><path style="opacity:1" fill="#e6e6e6" d="M 734.5,164.5 C 734.5,169.5 734.5,174.5 734.5,179.5C 730.167,179.5 725.833,179.5 721.5,179.5C 721.5,174.5 721.5,169.5 721.5,164.5C 725.833,164.5 730.167,164.5 734.5,164.5 Z"/></g>
<g><path style="opacity:1" fill="#f4f3f3" d="M 147.5,269.5 C 143.167,269.5 138.833,269.5 134.5,269.5C 134.5,264.5 134.5,259.5 134.5,254.5C 129.5,254.5 124.5,254.5 119.5,254.5C 119.5,259.5 119.5,264.5 119.5,269.5C 114.5,269.5 109.5,269.5 104.5,269.5C 104.5,264.5 104.5,259.5 104.5,254.5C 99.5,254.5 94.5,254.5 89.5,254.5C 89.5,259.5 89.5,264.5 89.5,269.5C 84.5,269.5 79.5,269.5 74.5,269.5C 74.5,264.5 74.5,259.5 74.5,254.5C 69.5,254.5 64.5,254.5 59.5,254.5C 59.5,259.5 59.5,264.5 59.5,269.5C 54.5,269.5 49.5,269.5 44.5,269.5C 44.5,264.5 44.5,259.5 44.5,254.5C 39.5,254.5 34.5,254.5 29.5,254.5C 29.5,259.5 29.5,264.5 29.5,269.5C 24.5,269.5 19.5,269.5 14.5,269.5C 14.5,264.5 14.5,259.5 14.5,254.5C 9.5,254.5 4.5,254.5 -0.5,254.5C -0.5,218.167 -0.5,181.833 -0.5,145.5C 1.4799,156.704 5.31323,167.371 11,177.5C 32.7538,206.974 61.2538,216.474 96.5,206C 131.553,189.42 147.053,161.587 143,122.5C 150.841,138.196 159.674,153.196 169.5,167.5C 162.164,201.521 154.831,235.521 147.5,269.5 Z"/></g>
<g><path style="opacity:1" fill="#f5f5f5" d="M 319.5,164.5 C 322.833,164.5 326.167,164.5 329.5,164.5C 329.5,169.5 329.5,174.5 329.5,179.5C 334.5,179.5 339.5,179.5 344.5,179.5C 344.5,184.5 344.5,189.5 344.5,194.5C 349.5,194.5 354.5,194.5 359.5,194.5C 359.5,199.5 359.5,204.5 359.5,209.5C 364.5,209.5 369.5,209.5 374.5,209.5C 374.5,214.5 374.5,219.5 374.5,224.5C 379.5,224.5 384.5,224.5 389.5,224.5C 389.5,229.5 389.5,234.5 389.5,239.5C 394.5,239.5 399.5,239.5 404.5,239.5C 404.5,244.5 404.5,249.5 404.5,254.5C 399.5,254.5 394.5,254.5 389.5,254.5C 389.5,259.5 389.5,264.5 389.5,269.5C 384.5,269.5 379.5,269.5 374.5,269.5C 374.5,264.5 374.5,259.5 374.5,254.5C 369.5,254.5 364.5,254.5 359.5,254.5C 359.5,259.5 359.5,264.5 359.5,269.5C 354.5,269.5 349.5,269.5 344.5,269.5C 344.5,264.5 344.5,259.5 344.5,254.5C 339.5,254.5 334.5,254.5 329.5,254.5C 329.5,259.5 329.5,264.5 329.5,269.5C 324.5,269.5 319.5,269.5 314.5,269.5C 314.5,264.5 314.5,259.5 314.5,254.5C 309.5,254.5 304.5,254.5 299.5,254.5C 299.5,249.5 299.5,244.5 299.5,239.5C 294.5,239.5 289.5,239.5 284.5,239.5C 284.5,234.5 284.5,229.5 284.5,224.5C 284.5,219.5 284.5,214.5 284.5,209.5C 284.5,207.167 284.5,204.833 284.5,202.5C 300.33,193.67 311.997,181.003 319.5,164.5 Z"/></g>
<g><path style="opacity:1" fill="#fefffe" d="M 674.5,194.5 C 669.5,194.5 664.5,194.5 659.5,194.5C 659.5,189.5 659.5,184.5 659.5,179.5C 664.5,179.5 669.5,179.5 674.5,179.5C 674.5,184.5 674.5,189.5 674.5,194.5 Z"/></g>
<g><path style="opacity:1" fill="#e8e7e8" d="M 851.5,166.5 C 861.853,179.527 871.853,192.86 881.5,206.5C 882.398,207.158 883.398,207.824 884.5,208.5C 879.544,209.494 874.544,209.827 869.5,209.5C 869.5,204.5 869.5,199.5 869.5,194.5C 864.5,194.5 859.5,194.5 854.5,194.5C 854.5,189.5 854.5,184.5 854.5,179.5C 849.5,179.5 844.5,179.5 839.5,179.5C 839.5,174.5 839.5,169.5 839.5,164.5C 843.813,163.99 847.813,164.657 851.5,166.5 Z"/></g>
<g><path style="opacity:1" fill="#fefffe" d="M 659.5,194.5 C 659.5,199.5 659.5,204.5 659.5,209.5C 654.5,209.5 649.5,209.5 644.5,209.5C 644.5,204.5 644.5,199.5 644.5,194.5C 649.5,194.5 654.5,194.5 659.5,194.5 Z"/></g>
<g><path style="opacity:1" fill="#f5f5f5" d="M 724.5,118.5 C 727.728,119.414 731.061,119.747 734.5,119.5C 734.5,124.5 734.5,129.5 734.5,134.5C 730.167,134.5 725.833,134.5 721.5,134.5C 721.5,139.5 721.5,144.5 721.5,149.5C 725.833,149.5 730.167,149.5 734.5,149.5C 734.5,154.5 734.5,159.5 734.5,164.5C 730.167,164.5 725.833,164.5 721.5,164.5C 721.5,169.5 721.5,174.5 721.5,179.5C 725.833,179.5 730.167,179.5 734.5,179.5C 734.5,184.5 734.5,189.5 734.5,194.5C 739.5,194.5 744.5,194.5 749.5,194.5C 749.5,199.5 749.5,204.5 749.5,209.5C 754.5,209.5 759.5,209.5 764.5,209.5C 764.5,214.5 764.5,219.5 764.5,224.5C 769.5,224.5 774.5,224.5 779.5,224.5C 779.5,229.5 779.5,234.5 779.5,239.5C 784.5,239.5 789.5,239.5 794.5,239.5C 794.5,244.5 794.5,249.5 794.5,254.5C 789.5,254.5 784.5,254.5 779.5,254.5C 779.5,259.5 779.5,264.5 779.5,269.5C 774.5,269.5 769.5,269.5 764.5,269.5C 764.5,264.5 764.5,259.5 764.5,254.5C 759.5,254.5 754.5,254.5 749.5,254.5C 749.5,259.5 749.5,264.5 749.5,269.5C 744.5,269.5 739.5,269.5 734.5,269.5C 734.5,264.5 734.5,259.5 734.5,254.5C 729.5,254.5 724.5,254.5 719.5,254.5C 719.5,259.5 719.5,264.5 719.5,269.5C 714.5,269.5 709.5,269.5 704.5,269.5C 704.5,264.5 704.5,259.5 704.5,254.5C 699.5,254.5 694.5,254.5 689.5,254.5C 689.5,259.5 689.5,264.5 689.5,269.5C 684.5,269.5 679.5,269.5 674.5,269.5C 674.5,264.5 674.5,259.5 674.5,254.5C 669.5,254.5 664.5,254.5 659.5,254.5C 659.5,259.5 659.5,264.5 659.5,269.5C 654.5,269.5 649.5,269.5 644.5,269.5C 644.5,264.5 644.5,259.5 644.5,254.5C 639.5,254.5 634.5,254.5 629.5,254.5C 629.5,259.5 629.5,264.5 629.5,269.5C 624.5,269.5 619.5,269.5 614.5,269.5C 614.5,264.5 614.5,259.5 614.5,254.5C 609.5,254.5 604.5,254.5 599.5,254.5C 599.5,249.5 599.5,244.5 599.5,239.5C 594.5,239.5 589.5,239.5 584.5,239.5C 584.5,234.5 584.5,229.5 584.5,224.5C 579.5,224.5 574.5,224.5 569.5,224.5C 569.5,219.5 569.5,214.5 569.5,209.5C 564.5,209.5 559.5,209.5 554.5,209.5C 555.029,205.649 554.362,202.149 552.5,199C 552.728,198.601 553.062,198.435 553.5,198.5C 577.809,212.6 602.809,213.934 628.5,202.5C 629.239,202.369 629.906,202.536 630.5,203C 629.577,205.041 629.244,207.208 629.5,209.5C 634.5,209.5 639.5,209.5 644.5,209.5C 649.5,209.5 654.5,209.5 659.5,209.5C 659.5,204.5 659.5,199.5 659.5,194.5C 664.5,194.5 669.5,194.5 674.5,194.5C 679.378,194.354 684.044,194.354 688.5,194.5C 688.5,198.5 688.5,202.5 688.5,206.5C 699.167,206.5 709.833,206.5 720.5,206.5C 720.333,180.165 720.5,153.831 721,127.5C 721.622,124.261 722.788,121.261 724.5,118.5 Z"/></g>
<g><path style="opacity:1" fill="#fefffe" d="M 89.5,209.5 C 94.5,209.5 99.5,209.5 104.5,209.5C 104.5,214.5 104.5,219.5 104.5,224.5C 99.5,224.5 94.5,224.5 89.5,224.5C 89.5,219.5 89.5,214.5 89.5,209.5 Z"/></g>
<g><path style="opacity:1" fill="#f9f9f9" d="M 195.5,224.5 C 200.167,224.5 204.833,224.5 209.5,224.5C 209.5,229.5 209.5,234.5 209.5,239.5C 214.5,239.5 219.5,239.5 224.5,239.5C 224.5,244.5 224.5,249.5 224.5,254.5C 219.5,254.5 214.5,254.5 209.5,254.5C 209.5,259.5 209.5,264.5 209.5,269.5C 204.5,269.5 199.5,269.5 194.5,269.5C 194.5,264.5 194.5,259.5 194.5,254.5C 192.833,254.5 191.167,254.5 189.5,254.5C 190.869,244.263 192.869,234.263 195.5,224.5 Z"/></g>
<g><path style="opacity:1" fill="#efeeef" d="M 358.5,67.5 C 347.894,66.1921 337.228,66.1921 326.5,67.5C 340.244,113.729 353.577,160.062 366.5,206.5C 377.167,206.5 387.833,206.5 398.5,206.5C 406.192,174.065 414.359,141.731 423,109.5C 426.327,121.809 429.494,134.142 432.5,146.5C 431.596,147.209 431.263,148.209 431.5,149.5C 427.5,149.5 423.5,149.5 419.5,149.5C 419.5,154.5 419.5,159.5 419.5,164.5C 424.5,164.5 429.5,164.5 434.5,164.5C 434.5,169.5 434.5,174.5 434.5,179.5C 429.5,179.5 424.5,179.5 419.5,179.5C 419.5,184.5 419.5,189.5 419.5,194.5C 414.5,194.5 409.5,194.5 404.5,194.5C 404.5,199.5 404.5,204.5 404.5,209.5C 409.5,209.5 414.5,209.5 419.5,209.5C 419.5,214.5 419.5,219.5 419.5,224.5C 424.5,224.5 429.5,224.5 434.5,224.5C 434.5,229.5 434.5,234.5 434.5,239.5C 439.5,239.5 444.5,239.5 449.5,239.5C 449.5,244.5 449.5,249.5 449.5,254.5C 454.5,254.5 459.5,254.5 464.5,254.5C 464.5,259.5 464.5,264.5 464.5,269.5C 469.5,269.5 474.5,269.5 479.5,269.5C 479.5,264.5 479.5,259.5 479.5,254.5C 484.5,254.5 489.5,254.5 494.5,254.5C 494.5,259.5 494.5,264.5 494.5,269.5C 499.5,269.5 504.5,269.5 509.5,269.5C 509.5,264.5 509.5,259.5 509.5,254.5C 514.5,254.5 519.5,254.5 524.5,254.5C 524.5,249.5 524.5,244.5 524.5,239.5C 519.5,239.5 514.5,239.5 509.5,239.5C 509.5,234.5 509.5,229.5 509.5,224.5C 504.5,224.5 499.5,224.5 494.5,224.5C 494.5,219.5 494.5,214.5 494.5,209.5C 489.5,209.5 484.5,209.5 479.5,209.5C 479.5,208.5 479.5,207.5 479.5,206.5C 488.702,172.689 498.369,139.023 508.5,105.5C 513.772,104.6 519.105,104.267 524.5,104.5C 524.5,99.5 524.5,94.5 524.5,89.5C 528.649,88.9197 532.316,89.5864 535.5,91.5C 532.104,97.2881 528.937,103.288 526,109.5C 514.945,145.656 524.112,175.323 553.5,198.5C 553.062,198.435 552.728,198.601 552.5,199C 554.362,202.149 555.029,205.649 554.5,209.5C 559.5,209.5 564.5,209.5 569.5,209.5C 569.5,214.5 569.5,219.5 569.5,224.5C 574.5,224.5 579.5,224.5 584.5,224.5C 584.5,229.5 584.5,234.5 584.5,239.5C 589.5,239.5 594.5,239.5 599.5,239.5C 599.5,244.5 599.5,249.5 599.5,254.5C 604.5,254.5 609.5,254.5 614.5,254.5C 614.5,259.5 614.5,264.5 614.5,269.5C 619.5,269.5 624.5,269.5 629.5,269.5C 629.5,264.5 629.5,259.5 629.5,254.5C 634.5,254.5 639.5,254.5 644.5,254.5C 644.5,259.5 644.5,264.5 644.5,269.5C 649.5,269.5 654.5,269.5 659.5,269.5C 659.5,264.5 659.5,259.5 659.5,254.5C 664.5,254.5 669.5,254.5 674.5,254.5C 674.5,259.5 674.5,264.5 674.5,269.5C 679.5,269.5 684.5,269.5 689.5,269.5C 689.5,264.5 689.5,259.5 689.5,254.5C 694.5,254.5 699.5,254.5 704.5,254.5C 704.5,259.5 704.5,264.5 704.5,269.5C 709.5,269.5 714.5,269.5 719.5,269.5C 719.5,264.5 719.5,259.5 719.5,254.5C 724.5,254.5 729.5,254.5 734.5,254.5C 734.5,259.5 734.5,264.5 734.5,269.5C 739.5,269.5 744.5,269.5 749.5,269.5C 749.5,264.5 749.5,259.5 749.5,254.5C 754.5,254.5 759.5,254.5 764.5,254.5C 764.5,259.5 764.5,264.5 764.5,269.5C 769.5,269.5 774.5,269.5 779.5,269.5C 779.5,264.5 779.5,259.5 779.5,254.5C 784.5,254.5 789.5,254.5 794.5,254.5C 794.5,259.5 794.5,264.5 794.5,269.5C 799.5,269.5 804.5,269.5 809.5,269.5C 809.5,264.5 809.5,259.5 809.5,254.5C 814.5,254.5 819.5,254.5 824.5,254.5C 824.5,259.5 824.5,264.5 824.5,269.5C 829.5,269.5 834.5,269.5 839.5,269.5C 839.5,264.5 839.5,259.5 839.5,254.5C 844.5,254.5 849.5,254.5 854.5,254.5C 854.5,259.5 854.5,264.5 854.5,269.5C 859.5,269.5 864.5,269.5 869.5,269.5C 869.5,264.5 869.5,259.5 869.5,254.5C 874.5,254.5 879.5,254.5 884.5,254.5C 884.5,259.5 884.5,264.5 884.5,269.5C 889.5,269.5 894.5,269.5 899.5,269.5C 899.5,271.167 899.5,272.833 899.5,274.5C 599.5,274.5 299.5,274.5 -0.5,274.5C -0.5,267.833 -0.5,261.167 -0.5,254.5C 4.5,254.5 9.5,254.5 14.5,254.5C 14.5,259.5 14.5,264.5 14.5,269.5C 19.5,269.5 24.5,269.5 29.5,269.5C 29.5,264.5 29.5,259.5 29.5,254.5C 34.5,254.5 39.5,254.5 44.5,254.5C 44.5,259.5 44.5,264.5 44.5,269.5C 49.5,269.5 54.5,269.5 59.5,269.5C 59.5,264.5 59.5,259.5 59.5,254.5C 64.5,254.5 69.5,254.5 74.5,254.5C 74.5,259.5 74.5,264.5 74.5,269.5C 79.5,269.5 84.5,269.5 89.5,269.5C 89.5,264.5 89.5,259.5 89.5,254.5C 94.5,254.5 99.5,254.5 104.5,254.5C 104.5,259.5 104.5,264.5 104.5,269.5C 109.5,269.5 114.5,269.5 119.5,269.5C 119.5,264.5 119.5,259.5 119.5,254.5C 124.5,254.5 129.5,254.5 134.5,254.5C 134.5,259.5 134.5,264.5 134.5,269.5C 138.833,269.5 143.167,269.5 147.5,269.5C 147.5,270.5 147.5,271.5 147.5,272.5C 160.167,272.5 172.833,272.5 185.5,272.5C 185.99,266.191 187.323,260.191 189.5,254.5C 191.167,254.5 192.833,254.5 194.5,254.5C 194.5,259.5 194.5,264.5 194.5,269.5C 199.5,269.5 204.5,269.5 209.5,269.5C 209.5,264.5 209.5,259.5 209.5,254.5C 214.5,254.5 219.5,254.5 224.5,254.5C 224.5,249.5 224.5,244.5 224.5,239.5C 219.5,239.5 214.5,239.5 209.5,239.5C 209.5,234.5 209.5,229.5 209.5,224.5C 204.833,224.5 200.167,224.5 195.5,224.5C 197.021,214.747 199.021,205.08 201.5,195.5C 227.996,212.542 255.663,214.875 284.5,202.5C 284.5,204.833 284.5,207.167 284.5,209.5C 279.5,209.5 274.5,209.5 269.5,209.5C 269.5,214.5 269.5,219.5 269.5,224.5C 274.5,224.5 279.5,224.5 284.5,224.5C 284.5,229.5 284.5,234.5 284.5,239.5C 289.5,239.5 294.5,239.5 299.5,239.5C 299.5,244.5 299.5,249.5 299.5,254.5C 304.5,254.5 309.5,254.5 314.5,254.5C 314.5,259.5 314.5,264.5 314.5,269.5C 319.5,269.5 324.5,269.5 329.5,269.5C 329.5,264.5 329.5,259.5 329.5,254.5C 334.5,254.5 339.5,254.5 344.5,254.5C 344.5,259.5 344.5,264.5 344.5,269.5C 349.5,269.5 354.5,269.5 359.5,269.5C 359.5,264.5 359.5,259.5 359.5,254.5C 364.5,254.5 369.5,254.5 374.5,254.5C 374.5,259.5 374.5,264.5 374.5,269.5C 379.5,269.5 384.5,269.5 389.5,269.5C 389.5,264.5 389.5,259.5 389.5,254.5C 394.5,254.5 399.5,254.5 404.5,254.5C 404.5,249.5 404.5,244.5 404.5,239.5C 399.5,239.5 394.5,239.5 389.5,239.5C 389.5,234.5 389.5,229.5 389.5,224.5C 384.5,224.5 379.5,224.5 374.5,224.5C 374.5,219.5 374.5,214.5 374.5,209.5C 369.5,209.5 364.5,209.5 359.5,209.5C 359.5,204.5 359.5,199.5 359.5,194.5C 354.5,194.5 349.5,194.5 344.5,194.5C 344.5,189.5 344.5,184.5 344.5,179.5C 339.5,179.5 334.5,179.5 329.5,179.5C 329.5,174.5 329.5,169.5 329.5,164.5C 326.167,164.5 322.833,164.5 319.5,164.5C 321.437,159.662 322.937,154.662 324,149.5C 327.832,114.496 314.665,88.1628 284.5,70.5C 284.5,66.8333 284.5,63.1667 284.5,59.5C 289.5,59.5 294.5,59.5 299.5,59.5C 299.5,64.5 299.5,69.5 299.5,74.5C 304.5,74.5 309.5,74.5 314.5,74.5C 314.5,69.5 314.5,64.5 314.5,59.5C 319.5,59.5 324.5,59.5 329.5,59.5C 329.5,54.5 329.5,49.5 329.5,44.5C 334.5,44.5 339.5,44.5 344.5,44.5C 344.5,49.5 344.5,54.5 344.5,59.5C 349.5,59.5 354.5,59.5 359.5,59.5C 359.721,62.2788 359.388,64.9455 358.5,67.5 Z"/></g>
<g><path style="opacity:1" fill="#fefffe" d="M 284.5,209.5 C 284.5,214.5 284.5,219.5 284.5,224.5C 279.5,224.5 274.5,224.5 269.5,224.5C 269.5,219.5 269.5,214.5 269.5,209.5C 274.5,209.5 279.5,209.5 284.5,209.5 Z"/></g>
<g><path style="opacity:1" fill="#fefffe" d="M 419.5,194.5 C 419.5,199.5 419.5,204.5 419.5,209.5C 414.5,209.5 409.5,209.5 404.5,209.5C 404.5,204.5 404.5,199.5 404.5,194.5C 409.5,194.5 414.5,194.5 419.5,194.5 Z"/></g>
<g><path style="opacity:1" fill="#f6f6f6" d="M 432.5,146.5 C 437.814,166.423 442.814,186.423 447.5,206.5C 458.167,206.5 468.833,206.5 479.5,206.5C 479.5,207.5 479.5,208.5 479.5,209.5C 484.5,209.5 489.5,209.5 494.5,209.5C 494.5,214.5 494.5,219.5 494.5,224.5C 499.5,224.5 504.5,224.5 509.5,224.5C 509.5,229.5 509.5,234.5 509.5,239.5C 514.5,239.5 519.5,239.5 524.5,239.5C 524.5,244.5 524.5,249.5 524.5,254.5C 519.5,254.5 514.5,254.5 509.5,254.5C 509.5,259.5 509.5,264.5 509.5,269.5C 504.5,269.5 499.5,269.5 494.5,269.5C 494.5,264.5 494.5,259.5 494.5,254.5C 489.5,254.5 484.5,254.5 479.5,254.5C 479.5,259.5 479.5,264.5 479.5,269.5C 474.5,269.5 469.5,269.5 464.5,269.5C 464.5,264.5 464.5,259.5 464.5,254.5C 459.5,254.5 454.5,254.5 449.5,254.5C 449.5,249.5 449.5,244.5 449.5,239.5C 444.5,239.5 439.5,239.5 434.5,239.5C 434.5,234.5 434.5,229.5 434.5,224.5C 429.5,224.5 424.5,224.5 419.5,224.5C 419.5,219.5 419.5,214.5 419.5,209.5C 419.5,204.5 419.5,199.5 419.5,194.5C 419.5,189.5 419.5,184.5 419.5,179.5C 424.5,179.5 429.5,179.5 434.5,179.5C 434.5,174.5 434.5,169.5 434.5,164.5C 429.5,164.5 424.5,164.5 419.5,164.5C 419.5,159.5 419.5,154.5 419.5,149.5C 423.5,149.5 427.5,149.5 431.5,149.5C 431.263,148.209 431.596,147.209 432.5,146.5 Z"/></g>
<g><path style="opacity:1" fill="#fefffe" d="M 494.5,164.5 C 499.5,164.5 504.5,164.5 509.5,164.5C 509.5,169.5 509.5,174.5 509.5,179.5C 504.5,179.5 499.5,179.5 494.5,179.5C 494.5,174.5 494.5,169.5 494.5,164.5 Z"/></g>
</svg>
