<?xml version="1.0" encoding="UTF-8"?>
<!DOCTYPE svg PUBLIC "-//W3C//DTD SVG 1.1//EN" "http://www.w3.org/Graphics/SVG/1.1/DTD/svg11.dtd">
<svg xmlns="http://www.w3.org/2000/svg" version="1.1" width="200px" height="48px" style="shape-rendering:geometricPrecision; text-rendering:geometricPrecision; image-rendering:optimizeQuality; fill-rule:evenodd; clip-rule:evenodd" xmlns:xlink="http://www.w3.org/1999/xlink">
<g><path style="opacity:0.875" fill="#d41f2a" d="M 39.5,10.5 C 39.552,12.9029 39.2186,15.2362 38.5,17.5C 37.6618,17.8417 37.3284,18.5084 37.5,19.5C 37.5,19.8333 37.5,20.1667 37.5,20.5C 35.5955,23.9683 33.4288,27.3016 31,30.5C 30.0546,30.0946 29.3879,29.428 29,28.5C 28.797,23.131 27.4637,18.131 25,13.5C 21.8081,19.4124 18.8081,25.4124 16,31.5C 14.1868,26.5943 12.5202,21.5943 11,16.5C 8.82987,14.1723 6.66321,14.1723 4.5,16.5C 3.83333,16.5 3.16667,16.5 2.5,16.5C 7.28616,4.15373 16.2862,-0.346266 29.5,3C 33.4775,4.80299 36.8108,7.30299 39.5,10.5 Z"/></g>
<g><path style="opacity:0.817" fill="#393a3b" d="M -0.5,18.5 C -0.5,18.1667 -0.5,17.8333 -0.5,17.5C 0.391047,16.8902 1.39105,16.5569 2.5,16.5C 3.16667,16.5 3.83333,16.5 4.5,16.5C 6.17335,17.343 7.34001,18.6763 8,20.5C 10.8875,39.9919 16.2208,40.9919 24,23.5C 25.1611,27.3893 26.1611,31.3893 27,35.5C 27.8373,37.0074 29.0039,37.5074 30.5,37C 34.6753,32.3148 37.0086,26.8148 37.5,20.5C 37.5,20.1667 37.5,19.8333 37.5,19.5C 38.3382,19.1583 38.6716,18.4916 38.5,17.5C 39.2186,15.2362 39.552,12.9029 39.5,10.5C 40.2679,9.73747 40.7679,8.73747 41,7.5C 41.4661,12.7295 42.2994,17.8962 43.5,23C 39.6941,41.7418 28.6941,47.7418 10.5,41C 3.44302,34.9136 -0.223651,27.4136 -0.5,18.5 Z"/></g>
<g><path style="opacity:0.749" fill="#d41f2a" d="M 49.5,12.5 C 51.1667,12.5 52.8333,12.5 54.5,12.5C 54.8583,16.5092 55.3583,20.5092 56,24.5C 57.5302,20.9099 58.8635,17.2432 60,13.5C 61.6667,12.1667 63.3333,12.1667 65,13.5C 67.7378,25.3115 69.5711,24.9782 70.5,12.5C 71.8333,12.5 73.1667,12.5 74.5,12.5C 73.9329,19.2357 72.9329,25.9024 71.5,32.5C 69.8333,32.5 68.1667,32.5 66.5,32.5C 65.5792,27.9862 64.0792,23.6529 62,19.5C 60.7779,23.6096 59.2779,27.6096 57.5,31.5C 55.9547,32.4519 54.288,32.7852 52.5,32.5C 51.7162,25.7976 50.7162,19.1309 49.5,12.5 Z"/></g>
<g><path style="opacity:0.813" fill="#d41f2a" d="M 91.5,12.5 C 92.8333,12.5 94.1667,12.5 95.5,12.5C 95.3379,14.5273 95.5045,16.5273 96,18.5C 101.185,17.0194 104.352,19.0194 105.5,24.5C 104.949,27.0561 103.949,29.3894 102.5,31.5C 98.9062,32.4259 95.2396,32.7592 91.5,32.5C 91.5,25.8333 91.5,19.1667 91.5,12.5 Z M 96.5,21.5 C 100.473,22.0755 101.473,24.2421 99.5,28C 98.2068,28.49 96.8734,28.6567 95.5,28.5C 95.298,26.0504 95.6314,23.717 96.5,21.5 Z"/></g>
<g><path style="opacity:0.718" fill="#393a3b" d="M 108.5,12.5 C 113.167,12.5 117.833,12.5 122.5,12.5C 122.5,13.8333 122.5,15.1667 122.5,16.5C 119.5,16.5 116.5,16.5 113.5,16.5C 113.5,17.8333 113.5,19.1667 113.5,20.5C 116.5,20.5 119.5,20.5 122.5,20.5C 122.5,21.8333 122.5,23.1667 122.5,24.5C 119.5,24.5 116.5,24.5 113.5,24.5C 113.5,25.8333 113.5,27.1667 113.5,28.5C 117.351,27.9709 120.851,28.6375 124,30.5C 125.797,29.0734 126.964,27.24 127.5,25C 125.984,22.9758 124.651,20.8091 123.5,18.5C 127.096,16.7209 129.596,17.7209 131,21.5C 132.404,17.7209 134.904,16.7209 138.5,18.5C 137.349,20.8091 136.016,22.9758 134.5,25C 135.223,27.5533 136.556,29.72 138.5,31.5C 135.433,33.0521 132.933,32.3855 131,29.5C 130.167,30.3333 129.333,31.1667 128.5,32C 121.842,32.4996 115.175,32.6663 108.5,32.5C 108.5,25.8333 108.5,19.1667 108.5,12.5 Z"/></g>
<g><path style="opacity:0.69" fill="#393a3b" d="M 178.5,15.5 C 181.167,16.1667 183.833,16.8333 186.5,17.5C 186.5,18.8333 186.5,20.1667 186.5,21.5C 185.5,21.5 184.5,21.5 183.5,21.5C 183.5,23.8333 183.5,26.1667 183.5,28.5C 184.5,28.5 185.5,28.5 186.5,28.5C 186.5,29.8333 186.5,31.1667 186.5,32.5C 183.606,32.9577 181.106,32.291 179,30.5C 178.501,25.5111 178.334,20.5111 178.5,15.5 Z"/></g>
<g><path style="opacity:0.744" fill="#d41f2a" d="M 80.5,17.5 C 87.1852,16.8518 90.1852,19.8518 89.5,26.5C 86.4281,26.1826 83.4281,26.5159 80.5,27.5C 83.0865,28.48 85.7531,28.8134 88.5,28.5C 88.5,29.8333 88.5,31.1667 88.5,32.5C 78.8496,34.6329 74.6829,30.9662 76,21.5C 76.9066,19.3909 78.4066,18.0576 80.5,17.5 Z M 81.5,21.5 C 82.7562,21.4614 83.7562,21.9614 84.5,23C 83.1667,23.6667 81.8333,23.6667 80.5,23C 81.056,22.6174 81.3893,22.1174 81.5,21.5 Z"/></g>
<g><path style="opacity:0.783" fill="#393a3b" d="M 141.5,17.5 C 153.352,17.0512 156.352,21.8846 150.5,32C 148.19,32.4966 145.857,32.6633 143.5,32.5C 143.5,34.1667 143.5,35.8333 143.5,37.5C 142.167,37.5 140.833,37.5 139.5,37.5C 138.934,30.5491 139.601,23.8824 141.5,17.5 Z M 143.5,21.5 C 148.328,21.3852 149.661,23.5519 147.5,28C 146.207,28.49 144.873,28.6567 143.5,28.5C 143.5,26.1667 143.5,23.8333 143.5,21.5 Z"/></g>
<g><path style="opacity:0.739" fill="#393a3b" d="M 159.5,17.5 C 166.167,16.8333 169.167,19.8333 168.5,26.5C 165.428,26.1826 162.428,26.5159 159.5,27.5C 162.086,28.48 164.753,28.8134 167.5,28.5C 167.5,29.8333 167.5,31.1667 167.5,32.5C 157.687,34.8436 153.52,31.177 155,21.5C 155.907,19.3909 157.407,18.0576 159.5,17.5 Z M 160.5,21.5 C 161.756,21.4614 162.756,21.9614 163.5,23C 162.167,23.6667 160.833,23.6667 159.5,23C 160.056,22.6174 160.389,22.1174 160.5,21.5 Z"/></g>
<g><path style="opacity:0.682" fill="#393a3b" d="M 169.5,17.5 C 171.939,18.0525 174.273,18.0525 176.5,17.5C 177.904,19.5471 177.571,21.2138 175.5,22.5C 174.513,25.7683 174.18,29.1016 174.5,32.5C 172.833,32.5 171.167,32.5 169.5,32.5C 169.5,27.5 169.5,22.5 169.5,17.5 Z"/></g>
<g><path style="opacity:0.725" fill="#393a3b" d="M 199.5,18.5 C 199.5,19.8333 199.5,21.1667 199.5,22.5C 188.872,21.8545 188.872,22.5212 199.5,24.5C 199.5,26.8333 199.5,29.1667 199.5,31.5C 195.6,32.4299 191.6,32.7633 187.5,32.5C 187.5,31.1667 187.5,29.8333 187.5,28.5C 189.467,28.2606 191.301,28.5939 193,29.5C 193.75,28.8742 194.584,28.3742 195.5,28C 188.545,28.3925 186.212,25.3925 188.5,19C 192.09,17.1777 195.757,17.0111 199.5,18.5 Z"/></g>
</svg>
